<?xml version="1.0" encoding="utf-8" ?>
<svg xmlns="http://www.w3.org/2000/svg" xmlns:xlink="http://www.w3.org/1999/xlink" width="512" height="512">
	<defs>
		<linearGradient id="gradient_0" gradientUnits="userSpaceOnUse" x1="255.83926" y1="475.61392" x2="256.03262" y2="181.41672">
			<stop offset="0" stop-color="#545AFF"/>
			<stop offset="1" stop-color="#00C0FF"/>
		</linearGradient>
	</defs>
	<path fill="url(#gradient_0)" d="M270.95 209.954C271.02 209.956 271.091 209.958 271.161 209.958C274.616 209.962 278.686 208.862 282.123 208.224C295.341 205.767 308.109 201.341 320.351 195.822C326.232 193.17 331.91 190.096 337.951 187.81Q339.716 187.136 341.504 186.524Q343.292 185.913 345.1 185.366Q346.909 184.819 348.736 184.336Q350.562 183.853 352.405 183.436Q354.248 183.019 356.105 182.667Q357.961 182.316 359.829 182.03Q361.697 181.745 363.574 181.526Q365.45 181.308 367.334 181.156Q369.217 181.004 371.105 180.92Q372.992 180.835 374.882 180.817Q376.771 180.8 378.66 180.85Q380.549 180.899 382.434 181.016Q384.32 181.133 386.201 181.317Q388.081 181.501 389.954 181.751Q391.827 182.002 393.69 182.319Q395.552 182.636 397.403 183.019Q399.253 183.402 401.088 183.851Q402.924 184.3 404.742 184.813Q406.56 185.327 408.359 185.905Q410.158 186.483 411.935 187.125Q413.713 187.767 415.466 188.471Q417.219 189.175 418.946 189.942Q420.673 190.708 422.372 191.535Q424.071 192.363 425.739 193.25Q427.407 194.137 429.043 195.083Q430.678 196.029 432.279 197.033Q433.88 198.036 435.445 199.096Q437.009 200.156 438.534 201.271Q440.06 202.386 441.545 203.554Q443.03 204.722 444.472 205.943Q445.915 207.163 447.313 208.434Q448.711 209.705 450.063 211.025Q451.817 212.749 453.486 214.555Q455.156 216.361 456.737 218.244Q458.319 220.127 459.809 222.084Q461.299 224.04 462.694 226.065Q464.089 228.091 465.386 230.18Q466.683 232.27 467.879 234.418Q469.075 236.567 470.168 238.771Q471.26 240.974 472.246 243.227C476.488 253.059 478.71 263.019 480.989 273.425L485.961 295.896L506.079 386.745Q508.321 396.652 510.403 406.594C510.955 409.242 511.174 412.252 512 414.793L512 427.921L511.931 428.155C510.915 431.724 510.546 435.431 509.423 439.004C504.64 454.217 495.445 464.815 482.027 473.101C480.662 473.867 479.319 474.639 477.869 475.236L477.536 475.566C475.671 476.042 473.732 477.007 471.904 477.683C468.956 478.772 465.957 479.518 462.865 480.079C458.386 480.891 454.018 481.106 449.479 481.041C435.821 480.844 428.166 477.073 417.158 469.488L416.997 469.164C415.864 468.441 414.781 467.731 413.749 466.866C410.032 463.83 406.225 460.914 402.545 457.819Q385.747 443.408 369.201 428.71C361.74 422.125 353.961 415.718 346.83 408.785Q346.321 409.264 345.798 409.727Q345.275 410.19 344.738 410.636Q344.2 411.083 343.65 411.512Q343.099 411.942 342.535 412.354Q341.971 412.766 341.394 413.16Q340.818 413.555 340.229 413.931Q339.641 414.308 339.041 414.666Q338.441 415.024 337.83 415.363Q337.219 415.702 336.598 416.022Q335.977 416.342 335.347 416.642Q334.716 416.943 334.077 417.224Q333.437 417.505 332.789 417.765Q332.141 418.026 331.485 418.267Q330.829 418.507 330.166 418.727Q329.503 418.947 328.834 419.147Q328.164 419.346 327.489 419.525Q326.813 419.703 326.133 419.861Q325.452 420.018 324.767 420.154Q324.082 420.291 323.393 420.405Q322.704 420.52 322.012 420.614Q321.319 420.707 320.624 420.779Q319.93 420.851 319.233 420.901Q318.536 420.951 317.838 420.98Q317.14 421.008 316.442 421.015Q315.743 421.022 315.045 421.007Q314.346 420.993 313.649 420.956Q312.951 420.92 312.255 420.862Q311.559 420.803 310.865 420.724Q310.171 420.644 309.48 420.543Q308.788 420.441 308.101 420.319Q307.413 420.196 306.729 420.052Q306.046 419.908 305.367 419.743Q304.688 419.578 304.015 419.392Q303.342 419.206 302.674 418.999Q302.007 418.792 301.347 418.564Q300.686 418.337 300.033 418.089Q299.38 417.841 298.735 417.572Q298.09 417.304 297.453 417.016Q296.817 416.728 296.19 416.421Q295.563 416.113 294.945 415.786Q294.328 415.459 293.721 415.113Q293.114 414.767 292.519 414.402Q291.923 414.037 291.339 413.654Q290.754 413.271 290.182 412.87Q289.61 412.469 289.051 412.051Q288.492 411.632 287.946 411.196Q287.4 410.761 286.867 410.308Q286.335 409.856 285.817 409.387Q285.299 408.918 284.796 408.433Q284.293 407.949 283.805 407.449Q283.318 406.949 282.845 406.434Q282.373 405.919 281.918 405.389Q281.462 404.86 281.023 404.317Q280.583 403.773 280.161 403.217Q279.739 402.66 279.335 402.091Q278.93 401.521 278.544 400.939Q278.157 400.357 277.788 399.764Q277.42 399.17 277.07 398.566Q276.72 397.961 276.389 397.346Q276.059 396.73 275.747 396.105Q275.435 395.48 275.143 394.845Q274.851 394.211 274.579 393.567Q274.307 392.924 274.055 392.273Q273.803 391.621 273.571 390.962C270.057 390.799 266.404 391.026 262.869 391.024L238.458 390.983Q238.225 391.644 237.972 392.297Q237.719 392.951 237.446 393.596Q237.172 394.242 236.879 394.878Q236.586 395.514 236.273 396.141Q235.96 396.768 235.627 397.385Q235.295 398.002 234.943 398.609Q234.592 399.215 234.222 399.81Q233.851 400.405 233.463 400.988Q233.074 401.571 232.668 402.142Q232.261 402.713 231.837 403.271Q231.413 403.829 230.972 404.373Q230.531 404.917 230.073 405.448Q229.614 405.978 229.14 406.494Q228.666 407.01 228.176 407.511Q227.685 408.012 227.18 408.497Q226.674 408.982 226.154 409.452Q225.634 409.921 225.099 410.374Q224.564 410.827 224.015 411.263Q223.467 411.699 222.905 412.117Q222.343 412.536 221.768 412.937Q221.193 413.338 220.607 413.721Q220.02 414.104 219.421 414.468Q218.822 414.833 218.213 415.178Q217.603 415.524 216.983 415.85Q216.363 416.177 215.733 416.484Q215.103 416.791 214.464 417.078Q213.825 417.365 213.177 417.632Q212.529 417.899 211.873 418.146Q211.217 418.393 210.554 418.619Q209.891 418.846 209.221 419.051Q208.551 419.257 207.875 419.441Q207.198 419.626 206.517 419.789Q205.836 419.952 205.149 420.094Q204.463 420.237 203.773 420.357Q203.082 420.478 202.389 420.577Q201.695 420.676 200.998 420.753Q200.302 420.831 199.603 420.886Q198.905 420.942 198.205 420.976Q197.505 421.01 196.804 421.022Q196.104 421.034 195.403 421.024Q194.702 421.014 194.002 420.983Q193.302 420.951 192.603 420.898Q191.904 420.844 191.208 420.769Q190.511 420.694 189.817 420.597Q189.123 420.5 188.432 420.382Q187.741 420.263 187.055 420.124Q186.368 419.984 185.686 419.823Q185.004 419.661 184.327 419.479Q183.651 419.297 182.98 419.093Q182.31 418.89 181.646 418.666Q180.982 418.442 180.325 418.197Q179.668 417.952 179.02 417.687Q178.371 417.422 177.731 417.137Q177.091 416.852 176.46 416.547Q175.829 416.242 175.207 415.918Q174.586 415.593 173.976 415.25Q173.365 414.906 172.765 414.543Q172.165 414.181 171.577 413.8Q170.989 413.419 170.413 413.02Q169.837 412.621 169.274 412.204Q168.71 411.787 168.16 411.353Q167.61 410.918 167.074 410.467Q166.538 410.016 166.016 409.548Q165.494 409.081 164.987 408.597C161.463 412.275 157.405 415.648 153.58 419.012L138.992 431.932C127.547 442.035 116.244 452.396 104.415 462.047C99.4751 466.077 94.1762 470.691 88.5184 473.647C87.1603 474.721 85.7109 475.469 84.0921 476.069L83.9226 476.155C79.6343 478.596 75.0632 479.856 70.1893 480.536C53.9993 482.795 37.1286 478.953 24.0008 469.099C22.6225 468.349 21.3076 467.048 20.1311 466.009C12.388 459.168 6.20208 449.872 3.00076 440.053Q1.80602 436.289 1.02697 432.418C0.711512 430.875 0.579567 429.286 0.0741562 427.79C0.0505524 427.72 0.0247187 427.651 0 427.581L0 414.828C0.502031 413.938 0.467859 412.791 0.612964 411.788C1.77785 403.738 3.98645 395.658 5.72787 387.7L16.7193 338.183L27.9415 287.436C31.3188 272.041 33.8682 256.217 40.3916 241.767C47.1322 226.836 57.8649 212.792 71.0042 202.935C90.4154 188.374 112.377 180.879 136.73 180.975C148.201 181.02 159.327 182.734 170.198 186.484C178.261 189.266 185.595 193.338 193.373 196.742C208.727 203.461 224.42 207.72 240.998 210.093C247.927 211.385 264.159 211.504 270.95 209.954Z"/>
	<path fill="#D5ECFE" d="M164.987 408.597Q164.26 407.903 163.564 407.178Q162.869 406.453 162.207 405.697Q161.544 404.941 160.916 404.157Q160.288 403.372 159.696 402.56Q159.104 401.748 158.548 400.911Q157.993 400.073 157.475 399.212Q156.958 398.351 156.479 397.467Q156.001 396.583 155.562 395.679Q155.124 394.775 154.726 393.852Q154.328 392.929 153.972 391.99Q153.616 391.05 153.302 390.095Q152.989 389.141 152.718 388.173Q152.447 387.205 152.22 386.226Q151.992 385.247 151.809 384.259Q151.625 383.271 151.486 382.276Q151.347 381.281 151.253 380.28Q151.158 379.28 151.109 378.276Q151.059 377.273 151.054 376.268Q151.049 375.263 151.089 374.259Q151.129 373.255 151.214 372.253Q151.299 371.252 151.428 370.255Q151.558 369.259 151.732 368.269Q151.906 367.279 152.123 366.298Q152.341 365.317 152.603 364.347Q152.864 363.377 153.169 362.419Q153.473 361.461 153.82 360.518Q154.168 359.575 154.556 358.649Q154.945 357.722 155.375 356.814Q155.805 355.905 156.275 355.017Q156.745 354.129 157.254 353.262Q157.763 352.396 158.31 351.553Q158.858 350.71 159.442 349.893Q160.026 349.076 160.647 348.285Q161.267 347.494 161.922 346.732Q162.577 345.97 163.266 345.238Q163.954 344.506 164.674 343.806Q165.395 343.105 166.146 342.437Q166.897 341.77 167.677 341.136Q168.457 340.503 169.265 339.905Q170.072 339.307 170.906 338.745Q171.739 338.184 172.597 337.66Q173.455 337.137 174.335 336.652Q175.215 336.167 176.116 335.722Q177.017 335.277 177.937 334.873Q178.857 334.469 179.794 334.106Q180.731 333.743 181.684 333.423Q182.636 333.102 183.602 332.825Q184.568 332.547 185.545 332.313Q186.522 332.078 187.509 331.888Q188.496 331.697 189.49 331.551Q190.484 331.405 191.484 331.304Q192.484 331.202 193.487 331.145Q194.49 331.088 195.495 331.076Q196.5 331.064 197.504 331.097Q198.509 331.13 199.51 331.208Q200.512 331.286 201.51 331.408Q202.507 331.53 203.498 331.697Q204.489 331.864 205.472 332.075Q206.454 332.286 207.426 332.541Q208.398 332.795 209.358 333.093Q210.318 333.391 211.263 333.731Q212.209 334.071 213.138 334.453Q214.068 334.836 214.979 335.259Q215.89 335.682 216.782 336.146Q217.674 336.61 218.544 337.113Q219.414 337.616 220.26 338.157Q221.107 338.698 221.928 339.277Q222.75 339.855 223.545 340.47Q224.34 341.085 225.107 341.735Q225.873 342.384 226.61 343.067Q227.347 343.751 228.053 344.466Q228.759 345.181 229.432 345.928Q230.105 346.674 230.744 347.45Q231.383 348.225 231.987 349.028Q232.59 349.832 233.158 350.661Q233.725 351.491 234.254 352.345Q234.784 353.199 235.275 354.076Q235.766 354.952 236.217 355.85Q236.669 356.748 237.08 357.665Q237.49 358.582 237.86 359.517Q238.229 360.451 238.556 361.402Q238.884 362.352 239.168 363.316Q239.453 364.279 239.694 365.255Q239.935 366.23 240.133 367.216Q240.33 368.201 240.483 369.194Q240.636 370.187 240.745 371.186Q240.854 372.185 240.918 373.188Q240.982 374.191 241.001 375.196Q241.02 376.201 240.994 377.205Q240.968 378.21 240.898 379.212Q240.827 380.215 240.712 381.213Q240.596 382.211 240.437 383.203Q240.277 384.195 240.073 385.179Q239.869 386.163 239.621 387.137Q239.373 388.111 239.083 389.073Q238.792 390.035 238.458 390.983Q238.225 391.644 237.972 392.297Q237.719 392.951 237.446 393.596Q237.172 394.242 236.879 394.878Q236.586 395.514 236.273 396.141Q235.96 396.768 235.627 397.385Q235.295 398.002 234.943 398.609Q234.592 399.215 234.222 399.81Q233.851 400.405 233.463 400.988Q233.074 401.571 232.668 402.142Q232.261 402.713 231.837 403.271Q231.413 403.829 230.972 404.373Q230.531 404.917 230.073 405.448Q229.614 405.978 229.14 406.494Q228.666 407.01 228.176 407.511Q227.685 408.012 227.18 408.497Q226.674 408.982 226.154 409.452Q225.634 409.921 225.099 410.374Q224.564 410.827 224.015 411.263Q223.467 411.699 222.905 412.117Q222.343 412.536 221.768 412.937Q221.193 413.338 220.607 413.721Q220.02 414.104 219.421 414.468Q218.822 414.833 218.213 415.178Q217.603 415.524 216.983 415.85Q216.363 416.177 215.733 416.484Q215.103 416.791 214.464 417.078Q213.825 417.365 213.177 417.632Q212.529 417.899 211.873 418.146Q211.217 418.393 210.554 418.619Q209.891 418.846 209.221 419.051Q208.551 419.257 207.875 419.441Q207.198 419.626 206.517 419.789Q205.836 419.952 205.149 420.094Q204.463 420.237 203.773 420.357Q203.082 420.478 202.389 420.577Q201.695 420.676 200.998 420.753Q200.302 420.831 199.603 420.886Q198.905 420.942 198.205 420.976Q197.505 421.01 196.804 421.022Q196.104 421.034 195.403 421.024Q194.702 421.014 194.002 420.983Q193.302 420.951 192.603 420.898Q191.904 420.844 191.208 420.769Q190.511 420.694 189.817 420.597Q189.123 420.5 188.432 420.382Q187.741 420.263 187.055 420.124Q186.368 419.984 185.686 419.823Q185.004 419.661 184.327 419.479Q183.651 419.297 182.98 419.093Q182.31 418.89 181.646 418.666Q180.982 418.442 180.325 418.197Q179.668 417.952 179.02 417.687Q178.371 417.422 177.731 417.137Q177.091 416.852 176.46 416.547Q175.829 416.242 175.207 415.918Q174.586 415.593 173.976 415.25Q173.365 414.906 172.765 414.543Q172.165 414.181 171.577 413.8Q170.989 413.419 170.413 413.02Q169.837 412.621 169.274 412.204Q168.71 411.787 168.16 411.353Q167.61 410.918 167.074 410.467Q166.538 410.016 166.016 409.548Q165.494 409.081 164.987 408.597Z"/>
	<path fill="#D5ECFE" d="M273.571 390.962Q273.237 390.013 272.946 389.049Q272.655 388.086 272.408 387.111Q272.16 386.136 271.956 385.15Q271.753 384.165 271.593 383.171Q271.434 382.178 271.319 381.178Q271.204 380.179 271.134 379.175Q271.064 378.171 271.039 377.165Q271.014 376.159 271.034 375.153Q271.054 374.147 271.119 373.143Q271.183 372.139 271.293 371.139Q271.403 370.138 271.557 369.144Q271.712 368.15 271.91 367.163Q272.109 366.177 272.352 365.2Q272.594 364.224 272.88 363.259Q273.167 362.295 273.495 361.344Q273.824 360.393 274.196 359.457Q274.567 358.522 274.979 357.604Q275.392 356.687 275.845 355.788Q276.298 354.89 276.791 354.013Q277.284 353.135 277.816 352.281Q278.347 351.427 278.917 350.597Q279.486 349.768 280.092 348.964Q280.698 348.161 281.339 347.385Q281.98 346.61 282.656 345.864Q283.331 345.118 284.039 344.403Q284.747 343.688 285.486 343.005Q286.225 342.323 286.994 341.674Q287.763 341.025 288.561 340.411Q289.358 339.797 290.182 339.219Q291.006 338.642 291.855 338.102Q292.704 337.561 293.576 337.06Q294.448 336.558 295.342 336.096Q296.236 335.634 297.149 335.212Q298.063 334.79 298.995 334.41Q299.926 334.03 300.874 333.691Q301.821 333.353 302.783 333.057Q303.745 332.762 304.719 332.509Q305.693 332.257 306.677 332.048Q307.662 331.84 308.654 331.676Q309.647 331.511 310.646 331.392Q311.645 331.272 312.649 331.197Q313.652 331.122 314.658 331.092Q315.664 331.062 316.67 331.077Q317.676 331.092 318.68 331.152Q319.685 331.212 320.685 331.317Q321.686 331.422 322.681 331.572Q323.676 331.721 324.664 331.915Q325.651 332.109 326.629 332.347Q327.606 332.585 328.572 332.866Q329.539 333.147 330.491 333.472Q331.444 333.796 332.381 334.163Q333.318 334.529 334.237 334.937Q335.157 335.345 336.058 335.794Q336.958 336.243 337.838 336.732Q338.717 337.22 339.574 337.748Q340.431 338.275 341.264 338.841Q342.096 339.406 342.902 340.008Q343.708 340.61 344.487 341.247Q345.266 341.885 346.015 342.556Q346.764 343.228 347.483 343.932Q348.201 344.637 348.887 345.373Q349.574 346.109 350.226 346.874Q350.879 347.64 351.497 348.435Q352.114 349.229 352.696 350.05Q353.278 350.871 353.822 351.717Q354.366 352.564 354.872 353.433Q355.378 354.303 355.845 355.195Q356.311 356.086 356.737 356.998Q357.163 357.909 357.548 358.839Q357.933 359.769 358.276 360.715Q358.619 361.661 358.92 362.621Q359.22 363.581 359.477 364.554Q359.734 365.527 359.948 366.51Q360.161 367.494 360.33 368.485Q360.499 369.477 360.624 370.476Q360.749 371.474 360.828 372.477Q360.908 373.48 360.943 374.486Q360.978 375.492 360.968 376.498Q360.958 377.504 360.903 378.509Q360.847 379.513 360.747 380.515Q360.647 381.516 360.503 382.512Q360.358 383.507 360.169 384.496Q359.98 385.484 359.747 386.463Q359.514 387.442 359.237 388.409Q358.961 389.376 358.641 390.331Q358.321 391.285 357.959 392.224Q357.597 393.162 357.194 394.084Q356.79 395.006 356.346 395.909Q355.901 396.811 355.417 397.693Q354.933 398.575 354.409 399.435Q353.886 400.294 353.325 401.129Q352.764 401.964 352.166 402.774Q351.568 403.583 350.934 404.365Q350.3 405.146 349.632 405.899Q348.964 406.651 348.263 407.373Q347.562 408.095 346.83 408.785Q346.321 409.264 345.798 409.727Q345.275 410.19 344.738 410.636Q344.2 411.083 343.65 411.512Q343.099 411.942 342.535 412.354Q341.971 412.766 341.394 413.16Q340.818 413.555 340.229 413.931Q339.641 414.308 339.041 414.666Q338.441 415.024 337.83 415.363Q337.219 415.702 336.598 416.022Q335.977 416.342 335.347 416.642Q334.716 416.943 334.077 417.224Q333.437 417.505 332.789 417.765Q332.141 418.026 331.485 418.267Q330.829 418.507 330.166 418.727Q329.503 418.947 328.834 419.147Q328.164 419.346 327.489 419.525Q326.813 419.703 326.133 419.861Q325.452 420.018 324.767 420.154Q324.082 420.291 323.393 420.405Q322.704 420.52 322.012 420.614Q321.319 420.707 320.624 420.779Q319.93 420.851 319.233 420.901Q318.536 420.951 317.838 420.98Q317.14 421.008 316.442 421.015Q315.743 421.022 315.045 421.007Q314.346 420.993 313.649 420.956Q312.951 420.92 312.255 420.862Q311.559 420.803 310.865 420.724Q310.171 420.644 309.48 420.543Q308.788 420.441 308.101 420.319Q307.413 420.196 306.729 420.052Q306.046 419.908 305.367 419.743Q304.688 419.578 304.015 419.392Q303.342 419.206 302.674 418.999Q302.007 418.792 301.347 418.564Q300.686 418.337 300.033 418.089Q299.38 417.841 298.735 417.572Q298.09 417.304 297.453 417.016Q296.817 416.728 296.19 416.421Q295.563 416.113 294.945 415.786Q294.328 415.459 293.721 415.113Q293.114 414.767 292.519 414.402Q291.923 414.037 291.339 413.654Q290.754 413.271 290.182 412.87Q289.61 412.469 289.051 412.051Q288.492 411.632 287.946 411.196Q287.4 410.761 286.867 410.308Q286.335 409.856 285.817 409.387Q285.299 408.918 284.796 408.433Q284.293 407.949 283.805 407.449Q283.318 406.949 282.845 406.434Q282.373 405.919 281.918 405.389Q281.462 404.86 281.023 404.317Q280.583 403.773 280.161 403.217Q279.739 402.66 279.335 402.091Q278.93 401.521 278.544 400.939Q278.157 400.357 277.788 399.764Q277.42 399.17 277.07 398.566Q276.72 397.961 276.389 397.346Q276.059 396.73 275.747 396.105Q275.435 395.48 275.143 394.845Q274.851 394.211 274.579 393.567Q274.307 392.924 274.055 392.273Q273.803 391.621 273.571 390.962Z"/>
	<path fill="#535AFE" d="M417.158 469.488L417.329 468.648C417.896 468.504 418.34 468.629 418.844 468.924C419.5 469.308 420.121 470.013 420.657 470.554C421.57 470.656 422.174 469.944 423.022 470.251C424.473 470.776 424.765 472.683 426.628 471.926C427.126 471.351 427.348 470.893 427.632 470.186C428.925 469.535 439.408 470.799 441.564 470.878C451.069 471.226 460.613 470.413 470.117 470.508C470.809 470.515 471.586 470.04 472.183 470.32C473.919 471.133 475.154 470.206 476.778 471.755L477.621 471.89C476.969 472.462 475.573 473.349 475.45 474.175C475.987 474.73 476.299 474.708 476.92 475.049C477.118 475.158 477.366 475.407 477.536 475.566C475.671 476.042 473.732 477.007 471.904 477.683C468.956 478.772 465.957 479.518 462.865 480.079C458.386 480.891 454.018 481.106 449.479 481.041C435.821 480.844 428.166 477.073 417.158 469.488Z"/>
	<path fill="#535AFE" d="M24.0008 469.099L24.3994 468.457C25.5626 468.535 26.3602 469.345 27.2319 470.085C27.8491 469.949 28.4335 469.766 29.0668 469.888L29.4311 471.055C29.9554 471.145 30.028 471.109 30.5186 470.988C31.1655 470.829 31.4671 470.855 32.0925 471.052C32.3877 471.319 32.4729 471.392 32.6237 471.775L33.0084 471.989C34.2013 471.632 34.843 470.891 35.63 469.965C38.6045 469.745 41.3567 470.28 44.2993 470.524C47.1722 470.762 50.1086 470.824 52.9917 470.875Q61.6352 470.978 70.2756 470.725C75.328 470.615 80.3722 470.286 85.3686 471.152L85.0168 471.803L85.5461 471.194L85.9144 471.422C85.4473 472.93 82.9299 474.116 81.7837 475.23C82.3881 475.849 83.2258 475.63 83.9226 476.155C79.6343 478.596 75.0632 479.856 70.1893 480.536C53.9993 482.795 37.1286 478.953 24.0008 469.099Z"/>
	<path fill="#535AFE" d="M477.869 475.236L477.388 474.662C477.498 474.251 477.425 474.145 477.808 473.911C479.075 473.14 480.599 472.737 482.027 473.101C480.662 473.867 479.319 474.639 477.869 475.236Z"/>
	<path fill="#535AFE" d="M84.0921 476.069C84.1166 475.987 84.1334 475.901 84.1654 475.821C84.4793 475.039 85.4076 474.234 86.1635 473.89C87.1077 473.462 87.5603 473.293 88.5184 473.647C87.1603 474.721 85.7109 475.469 84.0921 476.069Z"/>
	<path fill="#535AFE" d="M413.749 466.866C414.515 466.698 415.212 466.647 415.929 467.047C416.445 467.334 416.871 467.768 416.974 468.365C417.009 468.567 416.999 468.95 416.997 469.164C415.864 468.441 414.781 467.731 413.749 466.866Z"/>
	<path fill="#D5ECFE" d="M374.998 241.093C375.336 241.052 375.353 241.044 375.751 241.034C379.595 240.938 383.733 242.614 386.485 245.303C391.15 249.861 391.052 255.74 391.043 261.785L391.012 271.006L400.068 270.97C406.112 270.939 411.896 270.782 416.521 275.363Q417.038 275.878 417.502 276.441Q417.967 277.004 418.375 277.609Q418.783 278.214 419.13 278.856Q419.477 279.498 419.761 280.17Q420.044 280.843 420.261 281.539Q420.478 282.236 420.627 282.951Q420.776 283.665 420.854 284.391Q420.933 285.116 420.941 285.846Q420.948 286.588 420.881 287.328Q420.815 288.067 420.676 288.796Q420.536 289.525 420.326 290.237Q420.115 290.949 419.835 291.636Q419.556 292.324 419.209 292.98Q418.863 293.637 418.453 294.256Q418.044 294.875 417.575 295.451Q417.106 296.026 416.583 296.553C411.954 301.173 406.297 301.018 400.247 301.016L390.974 301.006C391.038 308.012 392.321 319.078 387.962 324.956C385.244 328.623 381.46 330.285 377.059 330.91C376.744 330.946 376.438 330.957 376.121 330.954C372.073 330.909 368.255 329.481 365.39 326.554C360.925 321.993 360.993 316.276 360.993 310.312L361.011 300.983L351.602 301.014C345.654 301.033 340.018 301.14 335.47 296.638Q334.951 296.119 334.485 295.552Q334.019 294.984 333.611 294.375Q333.202 293.765 332.855 293.118Q332.508 292.471 332.226 291.794Q331.943 291.116 331.728 290.414Q331.513 289.712 331.368 288.993Q331.222 288.273 331.147 287.543Q331.072 286.813 331.069 286.079Q331.065 285.341 331.133 284.605Q331.202 283.87 331.342 283.145Q331.482 282.42 331.692 281.712Q331.903 281.004 332.181 280.32Q332.46 279.636 332.804 278.983Q333.149 278.33 333.555 277.713Q333.962 277.097 334.427 276.523Q334.892 275.949 335.411 275.424C339.977 270.849 345.799 270.959 351.812 270.969L360.989 270.98C360.981 263.756 359.68 252.793 364.141 246.857C366.84 243.267 370.654 241.651 374.998 241.093Z"/>
	<path fill="#D5ECFE" d="M134.999 241.093C135.336 241.052 135.353 241.044 135.751 241.034C139.599 240.939 143.73 242.612 146.485 245.304C151.15 249.862 151.052 255.739 151.043 261.785L151.012 271.006L160.4 270.968C166.427 270.943 171.972 270.861 176.583 275.424Q177.098 275.943 177.56 276.51Q178.022 277.076 178.427 277.685Q178.832 278.294 179.176 278.939Q179.519 279.584 179.799 280.26Q180.078 280.935 180.291 281.635Q180.504 282.334 180.647 283.051Q180.791 283.768 180.864 284.495Q180.938 285.223 180.94 285.954Q180.942 286.69 180.871 287.422Q180.801 288.154 180.659 288.876Q180.517 289.597 180.306 290.302Q180.094 291.006 179.814 291.686Q179.535 292.367 179.19 293.016Q178.845 293.666 178.438 294.279Q178.031 294.891 177.566 295.461Q177.101 296.031 176.583 296.553C171.953 301.172 166.297 301.018 160.247 301.016L150.974 301.006C151.038 308.012 152.32 319.078 147.962 324.956C145.244 328.622 141.46 330.285 137.059 330.91C136.744 330.946 136.438 330.957 136.121 330.954C132.073 330.908 128.255 329.481 125.39 326.554C120.925 321.993 120.993 316.276 120.993 310.312L121.011 300.982L111.602 301.014C105.654 301.033 100.018 301.14 95.4698 296.638Q94.9509 296.119 94.485 295.552Q94.0191 294.984 93.6107 294.375Q93.2023 293.765 92.8552 293.118Q92.5082 292.471 92.2259 291.793Q91.9435 291.116 91.7285 290.414Q91.5135 289.712 91.3679 288.993Q91.2223 288.273 91.1475 287.543Q91.0727 286.813 91.0694 286.079Q91.0654 285.341 91.1337 284.605Q91.202 283.87 91.3421 283.145Q91.4821 282.42 91.6924 281.712Q91.9028 281.004 92.1814 280.32Q92.4601 279.636 92.8044 278.983Q93.1487 278.33 93.5554 277.713Q93.962 277.097 94.427 276.523Q94.8921 275.949 95.4111 275.424C99.9763 270.849 105.8 270.959 111.812 270.969L120.989 270.98C120.982 263.792 119.683 252.789 124.141 246.857C126.84 243.266 130.655 241.651 134.999 241.093Z"/>
	<path fill="#D5ECFE" d="M284.718 271.108Q285.083 271.077 285.449 271.063Q285.815 271.05 286.181 271.054Q286.547 271.059 286.912 271.081Q287.278 271.103 287.641 271.144Q288.005 271.184 288.367 271.242Q288.728 271.3 289.087 271.376Q289.445 271.451 289.799 271.544Q290.153 271.638 290.502 271.748Q290.851 271.858 291.195 271.985Q291.538 272.113 291.874 272.257Q292.211 272.401 292.54 272.561Q292.87 272.721 293.19 272.897Q293.511 273.074 293.823 273.265Q294.135 273.457 294.437 273.664Q294.74 273.871 295.031 274.092Q295.323 274.313 295.603 274.548Q295.884 274.784 296.153 275.033Q296.421 275.281 296.677 275.543Q296.933 275.805 297.176 276.078Q297.419 276.352 297.649 276.638Q297.878 276.923 298.093 277.219Q298.308 277.516 298.508 277.822Q298.709 278.129 298.894 278.445Q299.079 278.761 299.248 279.085Q299.418 279.41 299.571 279.742Q299.724 280.075 299.861 280.414Q299.998 280.754 300.118 281.1Q300.238 281.446 300.341 281.797Q300.443 282.149 300.529 282.505Q300.615 282.861 300.683 283.22Q300.751 283.58 300.801 283.943Q300.852 284.305 300.884 284.67Q300.917 285.035 300.931 285.401Q300.946 285.766 300.942 286.133Q300.939 286.499 300.918 286.864Q300.897 287.23 300.858 287.594Q300.818 287.958 300.762 288.319Q300.705 288.681 300.63 289.04Q300.556 289.398 300.464 289.752Q300.372 290.107 300.262 290.456Q300.153 290.806 300.027 291.149Q299.901 291.493 299.758 291.83Q299.615 292.167 299.456 292.497Q299.297 292.827 299.121 293.148Q298.946 293.47 298.755 293.782Q298.565 294.095 298.359 294.398Q298.153 294.7 297.933 294.993Q297.712 295.285 297.478 295.566Q297.244 295.848 296.996 296.117Q296.748 296.387 296.487 296.644Q296.226 296.901 295.953 297.144Q295.68 297.388 295.395 297.618Q295.111 297.849 294.815 298.065Q294.519 298.281 294.213 298.482Q293.908 298.683 293.592 298.869Q293.277 299.055 292.953 299.226Q292.629 299.396 292.297 299.55Q291.965 299.705 291.625 299.842Q291.286 299.98 290.941 300.101Q290.595 300.223 290.244 300.327Q289.893 300.431 289.537 300.517Q289.182 300.604 288.822 300.673Q288.463 300.742 288.1 300.794Q287.738 300.845 287.373 300.879Q287.007 300.913 286.64 300.929Q286.272 300.944 285.905 300.942Q285.537 300.94 285.17 300.919Q284.803 300.899 284.438 300.861Q284.072 300.822 283.709 300.766Q283.345 300.709 282.985 300.635Q282.625 300.561 282.269 300.469Q281.913 300.378 281.562 300.269Q281.211 300.16 280.866 300.033Q280.521 299.907 280.182 299.764Q279.844 299.621 279.512 299.461Q279.181 299.302 278.858 299.126Q278.535 298.95 278.221 298.759Q277.907 298.568 277.603 298.361Q277.299 298.155 277.006 297.934Q276.712 297.712 276.43 297.477Q276.147 297.242 275.877 296.993Q275.606 296.744 275.348 296.482Q275.091 296.22 274.846 295.945Q274.601 295.671 274.37 295.385Q274.139 295.099 273.923 294.802Q273.706 294.505 273.504 294.198Q273.303 293.89 273.116 293.573Q272.93 293.257 272.76 292.931Q272.589 292.605 272.435 292.272Q272.28 291.938 272.143 291.597Q272.005 291.256 271.884 290.909Q271.763 290.562 271.66 290.209Q271.556 289.857 271.47 289.499Q271.384 289.142 271.315 288.781Q271.247 288.419 271.196 288.055Q271.146 287.691 271.113 287.325Q271.08 286.959 271.066 286.592Q271.051 286.224 271.055 285.857Q271.058 285.489 271.08 285.122Q271.101 284.755 271.141 284.39Q271.18 284.024 271.238 283.661Q271.295 283.298 271.37 282.938Q271.446 282.578 271.539 282.223Q271.631 281.867 271.742 281.516Q271.852 281.166 271.979 280.821Q272.107 280.476 272.251 280.138Q272.395 279.8 272.555 279.469Q272.716 279.138 272.893 278.816Q273.069 278.494 273.262 278.18Q273.454 277.867 273.661 277.563Q273.869 277.26 274.091 276.967Q274.313 276.674 274.549 276.393Q274.786 276.111 275.035 275.841Q275.285 275.572 275.548 275.315Q275.811 275.057 276.086 274.814Q276.361 274.57 276.648 274.34Q276.935 274.11 277.232 273.894Q277.53 273.679 277.838 273.478Q278.146 273.277 278.463 273.092Q278.781 272.906 279.107 272.737Q279.433 272.567 279.767 272.414Q280.102 272.261 280.443 272.124Q280.784 271.987 281.132 271.868Q281.479 271.748 281.832 271.646Q282.185 271.543 282.543 271.458Q282.9 271.373 283.262 271.306Q283.623 271.238 283.987 271.189Q284.352 271.139 284.718 271.108Z"/>
	<path fill="#D5ECFE" d="M224.718 271.108Q225.083 271.077 225.449 271.063Q225.815 271.05 226.181 271.054Q226.547 271.059 226.912 271.081Q227.278 271.103 227.642 271.144Q228.005 271.184 228.367 271.242Q228.728 271.3 229.087 271.376Q229.445 271.451 229.799 271.544Q230.153 271.637 230.502 271.748Q230.851 271.858 231.195 271.985Q231.538 272.113 231.874 272.257Q232.211 272.401 232.54 272.561Q232.87 272.721 233.19 272.897Q233.511 273.074 233.823 273.265Q234.135 273.457 234.437 273.664Q234.74 273.871 235.031 274.092Q235.323 274.313 235.603 274.548Q235.884 274.784 236.153 275.033Q236.421 275.281 236.677 275.543Q236.933 275.805 237.176 276.078Q237.42 276.352 237.649 276.638Q237.878 276.923 238.093 277.219Q238.308 277.516 238.509 277.822Q238.709 278.129 238.894 278.445Q239.079 278.761 239.248 279.085Q239.418 279.41 239.571 279.742Q239.724 280.075 239.861 280.414Q239.998 280.754 240.118 281.1Q240.238 281.446 240.341 281.797Q240.444 282.148 240.529 282.505Q240.615 282.86 240.683 283.22Q240.751 283.58 240.801 283.943Q240.851 284.305 240.884 284.67Q240.917 285.035 240.931 285.401Q240.946 285.766 240.942 286.133Q240.939 286.499 240.918 286.864Q240.897 287.23 240.858 287.594Q240.819 287.958 240.762 288.319Q240.705 288.681 240.63 289.04Q240.556 289.398 240.464 289.752Q240.372 290.107 240.262 290.456Q240.153 290.806 240.027 291.149Q239.901 291.493 239.758 291.83Q239.615 292.167 239.456 292.497Q239.297 292.827 239.121 293.148Q238.946 293.47 238.755 293.782Q238.565 294.095 238.359 294.398Q238.153 294.7 237.933 294.993Q237.712 295.285 237.478 295.566Q237.244 295.848 236.996 296.117Q236.748 296.387 236.487 296.644Q236.226 296.901 235.953 297.144Q235.68 297.388 235.395 297.618Q235.111 297.849 234.815 298.065Q234.519 298.281 234.213 298.482Q233.908 298.683 233.592 298.869Q233.277 299.055 232.953 299.226Q232.629 299.396 232.297 299.55Q231.965 299.705 231.625 299.842Q231.286 299.98 230.941 300.101Q230.595 300.223 230.244 300.327Q229.893 300.431 229.537 300.517Q229.182 300.604 228.822 300.673Q228.463 300.742 228.1 300.794Q227.738 300.845 227.373 300.879Q227.007 300.913 226.64 300.929Q226.272 300.944 225.905 300.942Q225.537 300.94 225.17 300.919Q224.803 300.899 224.438 300.861Q224.072 300.822 223.709 300.766Q223.345 300.71 222.985 300.635Q222.625 300.561 222.269 300.47Q221.913 300.378 221.562 300.269Q221.211 300.16 220.866 300.033Q220.521 299.907 220.182 299.764Q219.844 299.621 219.512 299.461Q219.181 299.302 218.858 299.126Q218.535 298.951 218.221 298.759Q217.907 298.568 217.603 298.361Q217.299 298.155 217.006 297.934Q216.712 297.712 216.43 297.477Q216.147 297.242 215.877 296.993Q215.606 296.744 215.348 296.482Q215.091 296.22 214.846 295.945Q214.601 295.671 214.37 295.385Q214.139 295.099 213.923 294.802Q213.706 294.505 213.505 294.198Q213.303 293.89 213.116 293.573Q212.93 293.257 212.76 292.931Q212.589 292.605 212.435 292.272Q212.28 291.938 212.143 291.597Q212.005 291.256 211.884 290.909Q211.763 290.562 211.66 290.209Q211.556 289.857 211.47 289.499Q211.384 289.142 211.315 288.781Q211.247 288.419 211.196 288.055Q211.146 287.691 211.113 287.325Q211.08 286.959 211.066 286.592Q211.051 286.224 211.055 285.857Q211.058 285.489 211.08 285.122Q211.101 284.755 211.141 284.39Q211.18 284.024 211.238 283.661Q211.295 283.298 211.37 282.938Q211.446 282.578 211.539 282.223Q211.631 281.867 211.742 281.516Q211.852 281.166 211.979 280.821Q212.107 280.476 212.251 280.138Q212.395 279.8 212.555 279.469Q212.716 279.138 212.893 278.816Q213.069 278.494 213.262 278.18Q213.454 277.867 213.661 277.563Q213.869 277.26 214.091 276.967Q214.313 276.674 214.549 276.393Q214.786 276.111 215.035 275.841Q215.285 275.572 215.548 275.315Q215.811 275.057 216.086 274.814Q216.361 274.57 216.648 274.34Q216.935 274.11 217.232 273.894Q217.53 273.679 217.838 273.478Q218.146 273.277 218.463 273.092Q218.781 272.906 219.107 272.737Q219.433 272.567 219.767 272.414Q220.101 272.261 220.443 272.124Q220.784 271.987 221.132 271.868Q221.479 271.748 221.832 271.646Q222.185 271.543 222.543 271.458Q222.9 271.373 223.262 271.306Q223.623 271.238 223.987 271.189Q224.352 271.139 224.718 271.108Z"/>
	<path fill="#D5ECFE" d="M240.998 210.093C240.813 200.284 240.963 190.443 240.959 180.63C240.956 174.288 240.574 167.667 241.188 161.363Q241.344 159.823 241.604 158.297Q241.865 156.772 242.229 155.268Q242.593 153.763 243.059 152.287Q243.525 150.811 244.091 149.371Q244.656 147.93 245.319 146.532Q245.982 145.133 246.739 143.783Q247.496 142.433 248.343 141.138Q249.19 139.842 250.124 138.608C257.584 128.712 269.322 122.369 281.641 121.143C287.864 120.524 294.452 120.939 300.713 120.939L332.677 120.923C337.296 120.919 343.643 121.382 348.103 120.699Q349.104 120.546 350.074 120.257Q351.044 119.967 351.965 119.547Q352.886 119.127 353.741 118.584Q354.595 118.041 355.367 117.385C358.527 114.723 360.622 111.025 360.867 106.863Q360.904 106.118 360.867 105.373Q360.83 104.628 360.719 103.891Q360.607 103.153 360.423 102.43Q360.238 101.708 359.983 101.007Q359.727 100.306 359.403 99.6346Q359.079 98.9629 358.689 98.3269Q358.299 97.6909 357.848 97.0969Q357.397 96.503 356.889 95.957Q356.424 95.4539 355.917 94.9941Q355.409 94.5343 354.863 94.1213Q354.316 93.7083 353.735 93.3454Q353.154 92.9826 352.544 92.6727Q351.933 92.3627 351.297 92.1083Q350.661 91.8538 350.005 91.6567Q349.349 91.4596 348.678 91.3215Q348.007 91.1834 347.327 91.1054C343.025 90.5772 336.721 91.0242 332.19 91.0243L300.099 91.0229L210.408 91.0199L180.9 91.0265C175.54 91.0276 170.128 91.1877 164.774 90.9734C153.029 90.5034 141.268 85.6376 133.253 76.9123C125.531 68.5059 120.394 56.8366 121.006 45.2558C121.21 41.3953 122.639 37.7226 125.587 35.1185C128.757 32.3188 132.842 30.6744 137.115 31.0398C143.885 31.6186 149.052 36.1547 150.712 42.6975C151.894 47.3558 151.127 51.3264 154.485 55.3528C156.878 58.2212 159.818 59.9564 163.489 60.6082C167.999 61.4088 173.365 60.9311 177.957 60.9325L205.332 60.9363L302.453 60.9302L332.947 60.9218C338.515 60.9214 344.337 60.6016 349.871 61.1406C362.731 62.3931 373.554 68.4306 381.66 78.433C388.816 87.2627 392.032 99.5445 390.842 110.767Q390.669 112.379 390.381 113.975Q390.092 115.57 389.69 117.141Q389.287 118.711 388.773 120.249Q388.258 121.786 387.634 123.283Q387.01 124.779 386.28 126.227Q385.55 127.674 384.718 129.066Q383.885 130.457 382.955 131.785Q382.025 133.113 381.001 134.37Q379.879 135.737 378.656 137.014Q377.432 138.29 376.114 139.469Q374.796 140.648 373.391 141.722Q371.987 142.796 370.503 143.758Q369.02 144.721 367.468 145.567Q365.915 146.413 364.302 147.137Q362.688 147.861 361.024 148.459Q359.36 149.057 357.655 149.525C348.828 151.904 338.741 151.03 329.661 151.027L298.675 151.016C293.464 151.018 287.569 150.533 282.464 151.58C280.343 152.015 278.383 153.082 276.714 154.443C274.675 156.106 272.87 158.376 272.092 160.91C270.698 165.449 271.055 170.801 271.05 175.513L271.087 197.973C271.095 201.91 271.38 206.043 270.95 209.954C264.159 211.504 247.927 211.385 240.998 210.093Z"/>
</svg>
