<?xml version="1.0" encoding="utf-8" ?>
<svg xmlns="http://www.w3.org/2000/svg" xmlns:xlink="http://www.w3.org/1999/xlink" width="1024" height="1024">
	<path fill="#121429" d="M0 0L1024 0L1024 1024L0 1024L0 0Z"/>
	<path fill="#22223A" d="M594.761 216.677C595.754 216.581 596.752 216.487 597.75 216.474C601.259 216.427 604.432 217.964 606.815 220.506C619.426 233.961 617.794 280.322 614.439 298.324C613.156 305.204 608.173 320.927 608.393 326.326C608.595 331.268 611.22 336.455 612.592 341.207Q613.817 345.31 614.732 349.493Q615.648 353.675 616.248 357.915Q616.848 362.154 617.13 366.427Q617.411 370.699 617.373 374.981C622.272 375.216 627.535 375.131 632.342 376.114C635.185 376.696 636.89 377.463 638.529 379.873C638.543 380.413 638.719 380.838 638.299 381.253C635.763 383.751 620.872 381.373 616.543 381.15C615.448 386.637 613.726 391.832 611.717 397.044C616.298 398.378 620.907 399.665 625.444 401.14C628.931 402.273 634.287 403.837 636.032 407.285C635.844 408.744 635.727 408.783 634.693 409.853C633.637 410.265 632.78 410.529 631.642 410.234C628.95 409.538 626.381 407.902 623.714 406.999C618.957 405.389 613.911 404.362 609.029 403.184C603.041 413.181 596.582 421.462 588.777 430.058C589.406 430.611 589.995 431.18 590.566 431.794C595.953 437.585 600.37 444.715 604.869 451.234C630.093 487.781 637.319 519.701 636.244 563.591Q638.941 561.58 641.286 559.166Q643.63 556.752 645.561 553.997C658.28 535.578 650.009 516.231 646.409 496.55C643.357 479.868 638.036 456.312 648.894 441.337C653.551 434.914 661.207 430.772 669.01 429.677Q669.681 429.58 670.355 429.517Q671.03 429.454 671.707 429.426Q672.384 429.397 673.062 429.403Q673.74 429.408 674.416 429.448Q675.093 429.488 675.766 429.563Q676.44 429.637 677.109 429.745Q677.778 429.853 678.44 429.995Q679.103 430.137 679.758 430.313Q680.412 430.488 681.057 430.696Q681.702 430.905 682.336 431.145Q682.969 431.386 683.59 431.658Q684.21 431.931 684.816 432.234Q685.422 432.538 686.012 432.872Q686.601 433.206 687.174 433.569Q687.746 433.932 688.299 434.324Q688.852 434.716 689.384 435.135C708.144 450.137 690.374 474.156 688.155 492.403C686.95 502.309 689.376 512.109 690.524 521.898C692.661 540.102 686.782 558.064 675.344 572.292C661.292 589.771 642.498 600.207 620.271 602.586C618.735 604.439 617.142 606.227 615.335 607.821C603.504 618.255 588.722 619.204 573.781 620.051C565.474 620.521 557.252 620.857 548.936 620.299C541.748 619.632 536.501 618.176 530.496 613.981C527.502 617.882 523.637 619.908 518.92 621C507.093 623.739 489.198 622.994 478.687 616.486C473.594 617.246 468.377 617.225 463.265 617.898C457.593 618.645 452.054 620.175 446.353 620.771C434.561 622.004 421.397 621.255 409.551 620.157C403.845 619.628 397.3 618.352 393.571 613.591C391.256 610.635 390.602 606.674 391.235 603.03C392.511 595.674 398.523 590.673 404.236 586.576C398.255 579.639 394.526 571.103 392.91 562.114C389.292 541.987 397.28 523.716 408.591 507.544C408.385 484.931 412.157 467.075 420.224 446.007C401.611 435.328 393.609 427.021 382.946 408.588Q374.477 410.312 366.261 412.994C362.94 414.104 359.305 415.923 355.92 416.605C355.011 416.789 354.059 416.554 353.168 416.387L352.794 415.606L352.776 416.234C351.798 415.562 351.985 415.7 351.626 414.712C351.837 414.063 351.828 413.979 352.24 413.322C355.794 407.66 374.465 404.055 380.769 402.44C379.388 397.763 378.205 393.149 377.206 388.373C370.902 388.459 352.589 391.416 348.063 390.186C346.804 389.844 346.406 389.53 345.811 388.403C346.101 387.61 346.035 387.537 346.559 386.947C350.518 382.495 370.221 382.503 376.555 382.364C376.363 368.002 377.711 354.789 380.785 340.763C378.888 334.678 376.223 328.793 374.191 322.734C367.476 302.706 359.619 258.78 369.452 240.093C371.3 236.582 374.08 233.814 377.971 232.734C390.75 229.187 420.629 243.672 432.191 250.525C437.966 253.947 443.432 258.324 449.25 261.52L450.123 261.99C475.451 254.989 500.616 252.794 526.697 256.236C526.897 255.964 527.092 255.688 527.296 255.418C539.406 239.375 574.544 219.246 594.761 216.677Z"/>
	<path fill="#A5ABB4" d="M528.647 263.007C533.677 257.94 538.653 252.975 544.305 248.585C556.306 239.265 582.769 222.541 598.153 223.093C599.601 223.145 600.275 223.35 601.369 224.277C601.193 226.282 593.479 232.541 591.544 234.522C579.76 246.586 568.416 260.471 560.828 275.579C564.626 279.478 574.792 292.126 580.466 291.748C581.02 291.711 581.401 291.58 581.916 291.435C588.675 301.009 595.296 310.626 601.429 320.619L600.191 325.48C604.324 337.394 608.052 349.374 609.536 361.952C609.79 366.309 610.033 370.623 609.919 374.991C602.607 374.956 578.283 374.086 573.44 377.584C572.772 378.833 572.765 378.83 573.033 380.22C573.906 381.272 574.782 382.071 576.2 382.23C579.437 382.592 583.198 381.736 586.498 381.59Q597.702 381.115 608.915 381.174C607.935 386.473 606.339 391.326 604.317 396.313C598.754 394.828 579.374 389.805 574.666 392.516C573.901 392.956 573.762 393.689 573.396 394.449C573.613 395.84 573.632 396.09 574.878 396.942C575.193 397.156 597.827 401.184 601.282 402.055C595.422 412.003 588.229 422.153 578.757 429.002C574.99 431.726 570.66 433.801 567.016 436.663C565.508 437.848 564.098 438.95 564.206 440.98C564.987 442.029 565.274 442.628 566.692 442.809C571.643 443.44 579.64 436.617 583.538 433.996C589.989 442.879 597.814 451.682 603.156 461.235C615.851 478.619 625.958 505.4 627.706 527.088C631.162 548.714 630.271 577.313 617.001 595.493C610.413 604.519 601.422 610.535 590.273 612.106C583.481 613.062 571.969 613.738 565.184 612.84C563.663 609.542 568.865 601.124 564.073 599.839C562.918 599.53 561.591 599.851 560.684 600.613C557.618 603.187 557.702 609.691 557.611 613.4L549.922 612.901L549.964 612.19C550.276 607.649 553.876 600.846 550.944 597.127C549.791 596.731 549.53 596.683 548.352 597.261C545.618 598.6 543.948 603.384 543.449 606.125C543.089 608.101 543.046 610.108 542.999 612.111C540.159 611.369 537.746 610.784 536.275 608.038C535.26 606.143 535.687 603.77 536.463 601.882C538.524 596.868 543.176 592.631 547.911 590.208C551.777 590.334 555.382 590.548 559.128 591.554C563.741 592.794 571.421 598.477 575.901 597.23C576.892 596.26 576.909 596.14 577.178 594.771C576.56 592.233 574.94 591.262 572.826 589.962C565.402 585.397 555.032 582.616 546.375 584.056C542.231 565.754 546.112 545.626 556.071 529.745C559.538 524.216 564.159 518.89 570.056 515.892C572.043 514.882 575.066 513.989 576.672 512.481C577.706 511.509 577.976 510.391 577.879 509.071C576.854 508.13 575.76 507.95 574.387 507.973C566.722 508.102 560.028 513.43 555.15 518.9C542.765 532.786 535.152 555.304 536.326 573.785C536.632 578.61 537.544 583.308 539.434 587.773C536.224 590.133 532.746 592.759 530.607 596.188C525.948 603.655 525.533 616.285 513.435 614.967C512.851 614.903 512.697 614.786 512.232 614.554C511.057 610.559 514.31 605.549 511.658 601.815C510.438 601.535 509.657 601.58 508.556 602.29C506.717 603.477 505.957 605.528 505.639 607.603C505.275 609.983 505.356 612.575 505.372 614.982C503.03 614.682 498.26 614.938 496.559 613.136C496.091 612.64 496.058 612.057 496.134 611.395C496.506 608.121 500.631 605.787 498.538 602.293C497.805 601.07 496.761 600.167 495.401 599.76C493.663 600.453 493.001 601.66 492.291 603.351C490.989 606.453 490.702 610.384 488.683 613.06C487.835 613.363 487.893 613.559 487.199 613.244C485.371 612.415 483.846 609.566 483.314 607.715C482.211 603.876 483.817 599.387 485.763 596.09C487.747 592.727 490.979 589.136 492.13 585.405C495.242 575.318 495.638 559.216 496.974 548.207C497.699 542.235 499.229 536.498 500.083 530.606C500.254 529.425 500.288 527.926 499.931 526.77C499.637 525.816 499.277 525.341 498.618 524.625C497.381 524.297 497.045 524.225 495.827 524.85C492.177 526.723 491.051 534.102 490.417 537.779Q489.648 542.4 488.942 547.031C478.86 545.412 472.633 541.933 464.645 535.853C463.565 534.366 462.711 533.064 460.943 532.369C459.652 531.862 458.977 532.032 457.751 532.54C456.816 533.894 456.591 535.095 456.738 536.707C457.192 541.701 459.308 546.929 460.505 551.817Q462.264 558.858 463.27 566.046Q464.275 573.233 464.516 580.487C464.783 589.097 464.656 603.493 458.209 610.09C456.488 611.851 453.807 613.139 451.338 613.21C448.852 610.737 451.891 606.248 451.213 602.951C450.367 602.001 449.935 601.484 448.527 601.464C447.294 601.447 446.44 602.046 445.674 602.937C443.54 605.416 443.968 610.823 444.027 613.884C442.39 613.985 439.727 614.413 438.229 613.654C433.363 611.189 439.811 604.35 438.269 600.734C437.032 599.767 436.376 599.733 434.871 599.612C429.982 601.16 430.923 609.322 428.732 613.134L427.944 613.346C427.058 612.742 426.59 612 426.128 611.052C422.486 603.586 428.221 588.17 427.648 578.401C427.068 568.535 423.886 558.776 421.785 549.154C414.763 516.999 412.156 489.357 423.822 457.665Q425.382 452.931 427.105 448.255C431.804 450.054 448.853 456.532 453.154 454.719C454.617 454.102 454.932 452.879 455.572 451.571C451.439 447.674 444.062 446.792 438.736 445.103C417.266 438.297 401.258 428.06 390.774 407.631C395.733 406.541 402.19 405.824 405.722 401.883L405.59 400.506C400.477 397.873 393.354 400.456 388.199 401.892C386.813 397.567 385.816 393.214 384.84 388.786C389.711 388.989 397.054 390.065 401.432 387.822C402.563 387.242 402.661 387.129 403.014 385.983C402.817 385.755 402.639 385.509 402.424 385.298C398.927 381.849 388.741 382.603 384.006 382.555C383.843 377.257 383.749 371.927 384.21 366.643Q385.406 353.01 388.795 339.75C389.963 335.108 394.48 327.039 393.732 322.561C392.845 321.334 392.157 321.122 390.797 320.592L391.205 320.537C393.491 318.658 399.438 305.518 402.136 301.843C402.741 301.848 403.074 301.873 403.641 301.812C408.354 301.302 414.207 293.372 417.057 290.007Q414.421 284.257 411.38 278.711C407.707 272.119 387.931 243.21 380.034 242.182C378.435 241.973 377.748 242.694 376.541 243.521L376.027 243.314C376.023 241.891 376.085 241.647 376.788 240.409C377.788 239.787 378.554 239.418 379.738 239.269C397.033 237.107 434.056 259.233 448.367 269.827Q456.035 267.659 463.746 265.65C474.35 263.557 484.787 261.741 495.623 261.352C498.909 259.464 523.821 262.421 528.647 263.007Z"/>
	<path fill="#40455B" d="M528.647 263.007C533.677 257.94 538.653 252.975 544.305 248.585C556.306 239.265 582.769 222.541 598.153 223.093C599.601 223.145 600.275 223.35 601.369 224.277C601.193 226.282 593.479 232.541 591.544 234.522C579.76 246.586 568.416 260.471 560.828 275.579C564.626 279.478 574.792 292.126 580.466 291.748C581.02 291.711 581.401 291.58 581.916 291.435C588.675 301.009 595.296 310.626 601.429 320.619L600.191 325.48C604.324 337.394 608.052 349.374 609.536 361.952Q603.019 362.318 596.493 362.46C570.514 362.872 546.228 354.985 527.443 336.623C507.567 317.196 501.347 288.134 500.964 261.318L495.623 261.352C498.909 259.464 523.821 262.421 528.647 263.007Z"/>
	<path fill="#767A8A" d="M417.057 290.007Q414.421 284.257 411.38 278.711C407.707 272.119 387.931 243.21 380.034 242.182C378.435 241.973 377.748 242.694 376.541 243.521L376.027 243.314C376.023 241.891 376.085 241.647 376.788 240.409C377.788 239.787 378.554 239.418 379.738 239.269C397.033 237.107 434.056 259.233 448.367 269.827Q456.035 267.659 463.746 265.65C462.23 274.911 459.989 283.995 457.556 293.053C450.607 318.933 441.666 337.279 419.397 353.387C409.276 360.709 396.928 366.457 384.21 366.643Q385.406 353.01 388.795 339.75C389.963 335.108 394.48 327.039 393.732 322.561C392.845 321.334 392.157 321.122 390.797 320.592L391.205 320.537C393.491 318.658 399.438 305.518 402.136 301.843C402.741 301.848 403.074 301.873 403.641 301.812C408.354 301.302 414.207 293.372 417.057 290.007Z"/>
	<path fill="#40455B" d="M603.156 461.235C615.851 478.619 625.958 505.4 627.706 527.088C620.549 522.592 613.96 517.169 609.135 510.164C599.203 495.746 600.139 477.73 603.156 461.235Z"/>
	<path fill="#767A8A" d="M427.105 448.255C431.804 450.054 448.853 456.532 453.154 454.719C454.617 454.102 454.932 452.879 455.572 451.571Q474.358 452.349 493.145 451.616C496.348 451.489 504.023 450.205 506.744 451.576L506.778 452.359C504.47 454.414 501.344 455.538 498.492 456.637C483.839 462.283 468.088 463.061 452.556 462.18C443.33 461.657 432.357 461.209 423.822 457.665Q425.382 452.931 427.105 448.255Z"/>
	<path fill="#22223A" d="M480.639 372.232C483.199 372.251 485.758 372.271 488.297 372.641C490.508 372.963 493.68 373.541 494.993 375.555C498.053 380.251 485.116 385.398 483.981 389.797C483.31 392.399 484.1 395.125 485.48 397.359C487.11 399.996 489.625 402.22 492.735 402.82C500.201 404.26 501.303 397.182 506.334 394.347C507.441 393.723 508.201 393.913 509.315 394.304C509.575 394.719 509.825 395.058 509.939 395.557C510.417 397.655 509.029 400.258 507.863 401.893C505.412 405.329 501.334 408.091 497.139 408.772C492.084 409.593 487.731 407.684 483.692 404.818C482.944 404.026 482.182 403.413 481.304 402.771C479.234 404.331 476.847 406.369 474.492 407.443C471.324 408.887 466.374 408.246 463.19 407.14C460.129 406.077 456.492 403.963 455.238 400.786C454.76 399.575 454.524 398.321 455.27 397.15C456.008 395.991 456.799 395.857 458.014 395.561C459.976 396.137 461.165 398.395 462.48 399.84C464.047 401.56 466.916 402.648 469.222 402.682C471.396 402.714 473.336 401.813 474.813 400.233C477.982 396.842 477.973 393.499 477.823 389.178C474.25 386.672 466.301 383.411 465.017 378.991C464.59 377.519 464.819 377.178 465.445 375.878C469.419 372.657 475.744 372.496 480.639 372.232Z"/>
	<path fill="#22223A" d="M548.018 358.95C549.691 358.908 551.218 358.785 552.512 360.081C553.808 361.378 554.065 363.26 553.87 365.003C553.394 369.257 550.294 372.976 547.036 375.515C542.017 379.426 535.863 381.545 529.488 380.723C523.135 379.904 517.737 376.527 513.891 371.484C513.592 370.905 513.297 370.339 513.072 369.725C512.022 366.866 511.766 364.649 513.179 361.854C513.736 360.751 514.133 360.409 515.289 360.059C519.824 361.583 521.839 368.522 525.822 371.494C528.212 373.277 531.312 374.184 534.281 373.705C544.48 372.056 543.153 365.251 547.755 359.273C547.84 359.163 547.93 359.058 548.018 358.95Z"/>
	<path fill="#22223A" d="M448.855 360.278C450.467 360.35 451.91 360.412 453.001 361.779C454.03 363.066 454.251 364.79 454.126 366.384C453.781 370.818 450.86 375.329 447.42 378.022C443.236 381.297 437.551 382.687 432.313 381.912C426.142 380.999 421.186 377.172 417.623 372.212C416.289 369.397 416.171 366.642 417.276 363.699C417.737 362.472 418.18 362.126 419.335 361.603C424.746 362.202 424.563 371.471 428.847 374.227C431.406 375.873 435.19 375.514 438.009 374.886C445.86 373.137 444.837 366.062 448.582 360.652C448.67 360.525 448.764 360.403 448.855 360.278Z"/>
	<path fill="#A5ABB4" d="M652.717 490.397C653.102 490.338 653.499 490.111 653.873 490.219C655.795 490.776 662.877 495.531 666.305 496.875C671.028 498.728 675.858 499.774 680.906 500.186L680.929 500.971C681.183 508.49 683.183 515.793 683.875 523.259C685.551 541.351 678.533 559.236 666.251 572.423Q664.138 574.688 661.859 576.787Q659.579 578.885 657.147 580.805Q654.716 582.724 652.145 584.453Q649.574 586.183 646.88 587.712C640.637 591.217 633.518 593.408 626.473 594.477C628.046 591.785 629.468 589.104 630.658 586.218C631.858 583.306 634.162 574.272 635.71 572.464C636.607 571.416 638.906 570.338 640.145 569.598C642.679 568.083 644.563 566.238 646.636 564.167C648.487 562.046 650.294 559.902 651.914 557.596C666.6 536.686 656.728 512.823 652.717 490.397Z"/>
	<path fill="#767A8A" d="M646.636 564.167C647.277 571.942 646.919 579.907 646.88 587.712C640.637 591.217 633.518 593.408 626.473 594.477C628.046 591.785 629.468 589.104 630.658 586.218C631.858 583.306 634.162 574.272 635.71 572.464C636.607 571.416 638.906 570.338 640.145 569.598C642.679 568.083 644.563 566.238 646.636 564.167Z"/>
	<path fill="#40455B" d="M652.717 490.397C649.964 479.097 647.883 456.27 654.203 446.172C657.43 441.016 662.701 437.922 668.578 436.752C674.142 435.643 679.503 436.63 684.288 439.733C687.749 441.977 689.963 445.271 690.798 449.305C692.969 459.787 685.747 471.525 683.123 481.417C681.463 487.671 680.9 493.733 680.906 500.186C675.858 499.774 671.028 498.728 666.305 496.875C662.877 495.531 655.795 490.776 653.873 490.219C653.499 490.111 653.102 490.338 652.717 490.397Z"/>
	<path fill="#FE9392" d="M568.748 275.226C578.229 259.644 590.384 242.568 604.514 230.862C614.148 257.317 610.292 294.212 601.429 320.619C595.296 310.626 588.675 301.009 581.916 291.435C580.46 284.901 575.754 279.737 570.257 276.146Q569.516 275.665 568.748 275.226Z"/>
	<path fill="#FE9392" d="M385.181 332.23Q383.699 328.883 382.484 325.43C375.856 307.12 366.849 263.17 375.049 245.614L375.887 245.837C376.703 247.512 387.658 258.049 390.179 261.205C397.431 270.281 403.436 280.012 409.159 290.098C406.328 293.793 404.048 297.6 402.136 301.843C399.438 305.518 393.491 318.658 391.205 320.537L390.797 320.592C390.635 320.683 390.467 320.765 390.309 320.864C386.999 322.922 386.18 328.664 385.181 332.23Z"/>
	<path fill="#767A8A" d="M408.709 519.835C409.883 521.252 410.908 533.404 411.432 536.348C414.029 550.946 420.234 568.233 420.062 582.861C419.967 590.881 414.914 599.317 416.475 607.071C416.796 608.661 417.07 610.257 417.363 611.852L416.9 612.454L415.944 612.496C414.41 612.554 412.625 612.806 411.484 611.736C411.169 608.952 412.115 606.439 412.732 603.764C413.098 602.181 412.866 601.299 412.004 599.899C411.036 599.37 410.6 599.092 409.44 599.427C406.527 600.269 405.647 603.009 404.625 605.514C404.559 607.126 404.894 610.451 403.897 611.613C402.537 611.653 402.173 611.611 400.994 610.801C399.653 609.88 398.672 608.035 398.362 606.474C396.399 596.59 409.697 594.808 413.565 588.695C413.598 587.542 413.331 586.719 412.736 585.746C411.43 583.611 409.567 581.695 408.028 579.715Q406.754 578.086 405.637 576.345Q404.521 574.604 403.573 572.766Q402.625 570.928 401.853 569.009Q401.081 567.09 400.493 565.107C395.97 549.745 401.25 533.336 408.709 519.835Z"/>
	<path fill="#767A8A" d="M464.645 535.853C472.633 541.933 478.86 545.412 488.942 547.031C487.487 560.029 486.314 572.952 484.243 585.879Q482.283 587.963 480.487 590.19C475.676 596.149 474.299 602.451 475.096 609.96L467.145 610.041C477.126 588.454 470.249 558.034 464.645 535.853Z"/>
	<path fill="#FEFEFE" d="M408.281 680.531C410.672 680.477 412.793 680.553 415.016 681.529C418.625 683.114 421.238 686.267 422.512 689.956C424.191 694.819 423.659 700.064 421.298 704.601C419.839 707.405 417.808 709.823 414.67 710.72C409.771 712.12 405.417 709.525 401.349 707.145C400.821 708.415 401.081 710.563 401.083 711.977L401.214 722.287L396.035 722.138C396.008 709.326 395.056 693.942 396.308 681.467L397.576 680.683C398.914 680.782 399.02 680.775 400.05 681.62C400.361 682.455 400.543 683.02 400.545 683.929C400.546 684.159 400.527 684.388 400.518 684.618L402.107 684.287C404.184 682.413 405.56 681.408 408.281 680.531Z"/>
	<path fill="#121429" d="M408.027 684.985C409.137 684.975 410.301 684.947 411.384 685.225C413.959 685.886 415.981 687.858 417.132 690.204C418.685 693.366 418.754 697.231 417.527 700.509C416.336 703.692 414.509 705.119 411.492 706.482C410.232 706.432 408.874 706.429 407.659 706.072C405.254 705.366 403.233 703.416 402.115 701.215C400.599 698.23 400.492 694.51 401.663 691.391C402.933 688.01 404.853 686.494 408.027 684.985Z"/>
	<path fill="#FEFEFE" d="M590.374 680.547C594.284 680.467 597.689 681.129 600.586 683.97C604.517 687.826 604.971 692.958 605.12 698.131C600.181 698.192 590.756 696.931 586.394 698.123C585.118 698.472 584.813 698.806 584.206 699.942C584.351 701.406 584.938 702.402 585.861 703.518C587.273 705.228 589.196 706.383 591.442 706.483C594.479 706.619 596.557 705.34 598.736 703.373L599.19 702.956L599.368 702.617L600.203 702.487C601.335 703.152 602.095 703.625 602.951 704.651L602.822 705.919C600.775 708.332 598.308 709.552 595.269 710.4C591.638 711.412 588.566 711.244 585.265 709.313C582.152 707.491 580.161 704.476 579.248 701.027C578.028 696.421 578.572 691.2 581.057 687.096C583.341 683.325 586.206 681.654 590.374 680.547Z"/>
	<path fill="#121429" d="M589.967 685.019C591.843 684.932 593.799 684.969 595.528 685.781C598.651 687.248 599.533 690.638 600.502 693.651L595.125 693.696Q589.146 693.708 583.168 693.645C584.822 689.384 585.852 687.224 589.967 685.019Z"/>
	<path fill="#FEFEFE" d="M674.698 680.58Q675.631 680.55 676.564 680.541C680.059 680.511 682.969 681.161 685.474 683.781C689.323 687.806 688.797 693.771 688.8 698.91C688.801 701.247 689.377 708.831 687.881 710.329C686.438 710.384 685.506 710.664 684.225 709.925L683.834 708.014C680.263 708.46 677.129 711.8 673.348 711.375C670.131 711.014 667.734 708.678 665.788 706.308C665.373 705.198 665.076 703.943 665.009 702.757Q664.984 702.35 665.004 701.943Q665.023 701.536 665.086 701.133Q665.149 700.73 665.255 700.337Q665.361 699.943 665.509 699.563Q665.657 699.183 665.844 698.821Q666.032 698.459 666.258 698.12Q666.483 697.78 666.744 697.467Q667.005 697.153 667.298 696.87C671.415 692.962 678.356 693.447 683.574 693.537C683.419 691.064 683.199 688.39 681.878 686.224C681.204 685.12 680.415 684.394 679.083 684.209C676.765 683.888 672.986 686.885 670.937 688.006C669.201 688.956 668.243 688.57 666.497 688.03C666.247 687.185 666.178 687.544 666.548 686.874C668.603 683.151 670.624 681.734 674.698 680.58Z"/>
	<path fill="#121429" d="M677.211 697.7C678.038 697.64 678.867 697.577 679.696 697.546C681.531 697.477 682.06 697.66 683.398 698.923C683.716 700.243 683.832 700.905 683.157 702.144C681.667 704.876 679.219 705.94 676.404 706.84C675.093 706.754 673.354 706.778 672.192 706.103C671.156 705.502 670.221 704.594 670.022 703.367C669.802 702.005 670.207 701.001 671.072 699.965C672.722 697.993 674.822 697.942 677.211 697.7Z"/>
	<path fill="#FEFEFE" d="M350.118 680.646C352.083 680.481 354.292 680.419 356.215 680.881C360.122 681.821 361.983 684.415 363.929 687.677C364.097 692.454 365.605 707.536 363.282 710.712L362.315 710.73C361.321 709.927 360.323 708.976 359.104 708.543C358.271 708.246 357.423 708.755 356.72 709.189C354.815 710.365 353.142 711.056 350.865 711.103C347.175 711.178 344.511 709.753 341.952 707.239C340.889 704.841 340.418 702.039 341.136 699.465C343.142 692.274 353.607 695.313 358.384 692.451C359.054 691.353 359.36 690.785 359.035 689.476C358.614 687.781 357.287 685.454 355.662 684.652C351.918 682.804 348.496 687.968 345.191 688.803C344.113 689.075 343.482 689.072 342.507 688.51C342.322 687.19 342.621 686.408 343.295 685.253C344.949 682.418 347.124 681.592 350.118 680.646Z"/>
	<path fill="#121429" d="M355.273 697.713L357.774 697.677C358.918 698.299 358.981 698.281 359.491 699.467C359.405 700.636 359.145 701.404 358.493 702.362C356.308 705.572 354.154 706.352 350.46 706.983C349.686 706.77 348.874 706.555 348.15 706.202C346.786 705.539 345.95 704.692 345.366 703.291C345.459 702.058 345.611 701.371 346.495 700.445C349.135 697.677 351.758 697.839 355.273 697.713Z"/>
	<path fill="#FEFEFE" d="M519.208 680.574C520.454 680.506 521.683 680.462 522.93 680.566C526.023 680.823 528.681 682.121 530.58 684.609C534.714 690.028 533.542 703.529 532.639 710.124L529.054 710.361C528.034 709.681 528.895 708.716 528.151 707.648C524.903 709.447 521.008 711.632 517.152 710.966C513.992 710.421 511.973 708.521 510.186 705.996C509.98 705.094 509.76 704.168 509.683 703.245C509.498 701.042 510.309 698.642 511.839 697.042C515.763 692.94 522.911 693.475 528.07 693.544C527.851 691.401 527.735 689.135 526.753 687.181C526.025 685.734 525.282 684.815 523.7 684.275C520.155 684.287 517.266 687.322 514.336 689.031C513.01 689.049 512.899 689.117 511.843 688.346C511.428 687.102 511.262 686.727 511.892 685.454C513.162 682.889 516.691 681.402 519.208 680.574Z"/>
	<path fill="#121429" d="M523.815 697.713C524.616 697.67 525.738 697.502 526.511 697.676C527.708 697.945 527.824 698.477 528.326 699.461C528.224 700.656 528.019 701.446 527.301 702.434C525.08 705.495 523.066 706.349 519.415 706.893C518.872 706.78 518.326 706.664 517.797 706.498C516.174 705.988 515.094 705.071 514.353 703.544C514.408 702.195 514.472 701.521 515.406 700.485C517.908 697.712 520.394 697.836 523.815 697.713Z"/>
	<path fill="#FEFEFE" d="M319.36 670.571C323.624 670.362 327.582 670.871 330.923 673.78C332.919 675.518 334.124 677.919 334.216 680.572C334.37 684.984 332.467 686.888 329.703 689.906C330.065 690.658 329.834 690.359 330.555 690.972C332.148 692.324 333.916 693.612 334.956 695.472C336.286 697.85 336.047 700.662 335.223 703.179C334.327 705.914 332.463 708.053 329.898 709.349C326.058 711.291 320.729 711.588 316.657 710.25C312.205 708.786 310.56 706.562 308.616 702.506L312.227 700.95C313.963 701.307 314.853 703.331 315.923 704.753C316.909 705.194 317.952 705.603 319.014 705.817C321.831 706.387 325.611 706.114 328.052 704.468C329.478 703.506 330.364 702.15 330.653 700.453C330.941 698.765 330.698 696.593 329.595 695.233C327.436 692.574 323.502 693.143 320.498 692.505C319.091 692.206 318.706 691.878 317.902 690.717C317.932 689.489 317.781 689.376 318.506 688.307L319.205 688.289C322.433 688.183 325.514 687.76 327.753 685.181C328.881 683.883 329.588 682.112 329.301 680.379C329.04 678.808 327.877 677.546 326.583 676.706C319.74 672.266 317.188 679.275 311.381 680.455C310.145 680.004 310.165 679.932 309.47 678.799C309.516 678.274 309.52 677.872 309.73 677.36C311.113 673.984 316.114 671.539 319.36 670.571Z"/>
	<path fill="#FEFEFE" d="M426.166 681.085L432.041 681.045L439.55 702.15C442.466 695.317 444.674 688.081 447.063 681.05C448.905 681.021 450.692 681.057 452.527 681.228C450.895 688.443 447.339 695.906 444.733 702.87C442.932 707.74 440.519 717.998 436.542 721.071C435.086 722.196 431.37 722.648 429.684 721.958C428.513 721.479 428.449 720.965 428.191 719.879C428.472 718.712 428.787 718.123 429.542 717.192C430.642 717.081 431.917 717.026 432.863 716.395C435.192 714.839 435.943 711.02 436.748 708.499C433.009 699.462 429.815 690.169 426.166 681.085Z"/>
	<path fill="#FEFEFE" d="M483.313 681.091C484.821 681.02 486.178 681.034 487.676 681.243C489.127 684.545 486.943 689.389 488.469 692.938C488.839 693.798 489.066 693.673 489.875 694.007C494.869 692.186 496.739 683.738 502.004 681.229C503.319 681.157 504.501 680.937 505.669 681.671C504.561 685.14 498.297 691.592 495.757 694.737L502.414 704.063C503.578 705.684 505.769 707.913 505.95 709.859C504.703 710.791 503.03 710.463 501.549 710.413C499.199 707.178 494.748 698.368 490.894 697.209C490.146 696.984 489.987 697.246 489.35 697.564C487.055 700.95 488.665 704.639 487.847 708.3C487.552 709.622 486.782 710.415 485.668 711.109C484.651 711.116 484.576 710.816 483.8 710.214C482.488 707.346 483.321 685.77 483.313 681.091Z"/>
	<path fill="#FEFEFE" d="M621.338 680.618C622.646 680.589 623.988 680.621 625.283 680.829C629.869 681.563 632.396 684.796 634.791 688.418L630.464 689.854L630.084 689.433C628.378 687.514 626.932 686.16 624.479 685.269C622.796 684.658 621.164 684.564 619.54 685.455C617.182 686.749 615.701 689.571 614.973 692.059C613.927 695.633 614.301 699.83 616.28 703.029C617.286 704.656 618.697 705.924 620.609 706.304C623.236 706.826 626.132 705.841 628.269 704.354C628.369 704.213 628.467 704.07 628.569 703.929L629.026 703.31C629.564 702.568 629.94 701.918 630.75 701.457C632.03 700.727 632.192 700.896 633.532 701.277C633.984 702.568 633.893 703.427 633.404 704.675Q633.201 705.178 632.947 705.658Q632.693 706.137 632.391 706.588Q632.089 707.039 631.741 707.455Q631.394 707.872 631.005 708.25Q630.616 708.629 630.19 708.964Q629.763 709.3 629.305 709.59Q628.846 709.88 628.359 710.12Q627.873 710.361 627.364 710.549C623.994 711.817 620.33 711.233 617.165 709.669C613.554 707.886 611.034 705.085 609.861 701.209Q609.612 700.358 609.45 699.486Q609.287 698.614 609.214 697.731Q609.141 696.847 609.158 695.96Q609.174 695.074 609.28 694.193Q609.386 693.313 609.58 692.448Q609.775 691.583 610.055 690.742Q610.336 689.9 610.701 689.092Q611.065 688.283 611.509 687.516C613.873 683.509 616.908 681.663 621.338 680.618Z"/>
	<path fill="#FEFEFE" d="M464.208 680.566C467.385 680.454 470.068 680.852 472.719 682.735C474.556 684.04 475.97 685.568 476.245 687.894C476.548 690.447 474.82 692.527 473.251 694.29L472.81 694.777C473.13 695.806 472.912 695.473 473.58 696.259C475.172 698.135 477.256 700.057 477.466 702.667C477.596 704.283 476.685 705.756 475.622 706.888C473.139 709.534 470.159 710.91 466.513 710.99C463.613 711.055 460.07 710.102 457.971 707.996C456.972 706.993 456.739 706.098 456.708 704.701C457.674 703.124 458.742 702.934 460.393 702.163C461.128 703.645 461.716 704.854 463.139 705.785C464.46 706.649 466.479 706.912 468 706.58C469.538 706.245 470.783 705.342 471.505 703.916C472.297 702.352 472.214 701.127 471.591 699.558C470.149 698.212 468.657 698.017 466.873 697.323C465.512 696.794 465.084 696.543 464.486 695.216C466.053 693.12 469.566 692.767 471.122 690.508C471.842 689.463 471.776 689.195 471.575 688.034C470.697 686.734 468.803 685.389 467.26 685.018C465.499 684.595 464.141 685.568 462.796 686.524C461.31 687.582 460.424 688.482 458.592 688.666C457.577 688.134 457.269 687.729 456.702 686.742C456.796 686.145 456.772 686.042 457.09 685.429C458.277 683.147 461.88 681.285 464.208 680.566Z"/>
	<path fill="#FEFEFE" d="M551.476 681.061C558.295 681.036 565.578 680.437 572.354 680.972C573.786 681.085 574.363 681.057 575.271 682.151C575.323 683.647 575.562 684.26 574.706 685.523C572.065 686.526 568.761 686.033 565.966 685.95L565.969 701.25C566.043 703.508 566.507 706.779 565.828 708.92C565.421 710.205 565.012 710.335 563.886 710.797C563.002 710.625 562.219 710.578 561.509 709.971C560.389 709.015 561.029 688.69 560.996 685.936C558.207 685.912 554.812 686.809 552.266 685.559C551.212 683.946 551.477 682.958 551.476 681.061Z"/>
	<path fill="#FEFEFE" d="M637.548 681.081C641.754 681.036 659.074 679.955 661.51 682.324C661.587 683.633 661.663 684.377 661.101 685.603C658.397 686.475 654.841 686.022 651.987 685.971L651.986 701.25C652.059 704.89 652.504 707.704 650.359 710.841L648.975 711.034C645.548 707.215 647.006 691.288 647.034 685.962C644.376 685.963 640.677 686.706 638.336 685.55C637.29 683.947 637.551 682.967 637.548 681.081Z"/>
	<path fill="#FEFEFE" d="M371.795 681.102C376.338 681.163 387.104 679.791 390.454 681.9C391.095 683.12 391.184 683.283 391.072 684.646C388.363 687.164 380.241 686.036 376.731 685.985L376.82 694.875C376.763 698.103 377.047 701.271 377.092 704.489C377.121 706.582 377.038 708.522 375.493 710.08C374.257 710.467 374.087 710.511 372.841 710.186C372.073 709.309 371.86 708.523 371.757 707.387C371.546 705.072 371.924 702.549 371.919 700.21L371.795 681.102Z"/>
	<path fill="#A5ABB4" d="M684.221 304.604Q684.551 304.454 684.898 304.35Q685.245 304.246 685.602 304.189Q685.96 304.133 686.322 304.124Q686.684 304.116 687.044 304.156Q687.404 304.196 687.755 304.284Q688.106 304.372 688.443 304.506Q688.779 304.64 689.095 304.818Q689.41 304.995 689.699 305.214Q689.988 305.432 690.245 305.688Q690.502 305.943 690.722 306.23Q690.943 306.517 691.123 306.831Q691.303 307.146 691.439 307.481Q691.576 307.816 691.666 308.167Q691.757 308.518 691.799 308.877Q691.842 309.237 691.836 309.599Q691.83 309.961 691.776 310.319Q691.722 310.677 691.62 311.025Q691.519 311.372 691.372 311.703Q691.224 312.034 691.034 312.342Q690.844 312.651 690.615 312.931Q690.385 313.211 690.12 313.457Q689.855 313.704 689.559 313.913Q689.264 314.122 688.943 314.29Q688.622 314.458 688.281 314.581Q688.16 314.625 688.036 314.663Q687.913 314.701 687.788 314.733Q687.663 314.765 687.537 314.791Q687.411 314.817 687.283 314.837Q687.156 314.857 687.027 314.871Q686.899 314.885 686.77 314.893Q686.642 314.901 686.513 314.902Q686.384 314.904 686.255 314.899Q686.126 314.894 685.997 314.884Q685.869 314.873 685.741 314.856Q685.613 314.839 685.486 314.816Q685.359 314.793 685.233 314.764Q685.108 314.735 684.984 314.7Q684.859 314.665 684.737 314.624Q684.615 314.583 684.495 314.536Q684.374 314.49 684.256 314.437Q684.139 314.385 684.023 314.327Q683.908 314.269 683.796 314.205Q683.683 314.142 683.574 314.073Q683.465 314.004 683.359 313.93Q683.254 313.856 683.152 313.777Q683.05 313.699 682.951 313.615Q682.853 313.531 682.759 313.443Q682.665 313.355 682.575 313.262Q682.486 313.169 682.4 313.073Q682.315 312.976 682.235 312.875Q682.154 312.774 682.079 312.669Q682.003 312.565 681.933 312.457Q681.862 312.349 681.797 312.237Q681.732 312.126 681.672 312.012Q681.612 311.898 681.558 311.781Q681.504 311.664 681.455 311.544Q681.406 311.424 681.364 311.303Q681.321 311.181 681.284 311.058Q681.247 310.934 681.216 310.809Q681.185 310.684 681.16 310.557Q681.135 310.43 681.116 310.303Q681.097 310.175 681.084 310.047Q681.071 309.919 681.065 309.79Q681.058 309.661 681.057 309.532Q681.057 309.403 681.063 309.274Q681.068 309.145 681.08 309.017Q681.092 308.888 681.11 308.76Q681.128 308.633 681.152 308.506Q681.176 308.379 681.206 308.254Q681.237 308.128 681.273 308.005Q681.309 307.881 681.351 307.759Q681.393 307.637 681.44 307.517Q681.488 307.397 681.542 307.28Q681.595 307.162 681.654 307.048Q681.713 306.933 681.777 306.821Q681.842 306.709 681.911 306.601Q681.981 306.492 682.056 306.387Q682.131 306.282 682.211 306.181Q682.29 306.079 682.375 305.982Q682.459 305.884 682.548 305.791Q682.637 305.698 682.731 305.609Q682.824 305.52 682.922 305.436Q683.019 305.351 683.121 305.272Q683.222 305.192 683.328 305.117Q683.433 305.043 683.542 304.973Q683.65 304.904 683.762 304.839Q683.874 304.775 683.989 304.716Q684.104 304.657 684.221 304.604Z"/>
	<path fill="#A5ABB4" d="M301.893 300.408C303.368 300.563 304.873 300.902 305.963 301.979C306.953 302.958 307.301 304.079 307.305 305.442C307.312 307.616 305.991 309.231 304.582 310.717C304.27 310.706 303.959 310.701 303.648 310.682C302.225 310.598 300.875 310.01 299.988 308.854C299.088 307.68 298.745 306.619 298.876 305.153C299.081 302.85 300.221 301.796 301.893 300.408Z"/>
	<path fill="#A5ABB4" d="M325.336 469.517Q325.428 469.468 325.523 469.424Q325.618 469.38 325.715 469.341Q325.811 469.302 325.91 469.267Q326.009 469.233 326.109 469.203Q326.209 469.173 326.31 469.148Q326.412 469.123 326.514 469.104Q326.617 469.084 326.72 469.069Q326.824 469.054 326.928 469.044Q327.032 469.035 327.136 469.03Q327.24 469.025 327.345 469.026Q327.449 469.026 327.553 469.032Q327.658 469.037 327.762 469.048Q327.866 469.059 327.969 469.074Q328.072 469.09 328.174 469.111Q328.277 469.131 328.378 469.157Q328.479 469.183 328.579 469.213Q328.679 469.244 328.777 469.279Q328.876 469.315 328.972 469.355Q329.069 469.395 329.163 469.44Q329.257 469.484 329.349 469.534Q329.441 469.583 329.531 469.637Q329.62 469.691 329.707 469.749Q329.794 469.807 329.878 469.869Q329.962 469.931 330.042 469.998Q330.123 470.064 330.201 470.134Q330.278 470.204 330.352 470.278Q330.426 470.352 330.496 470.429Q330.566 470.507 330.633 470.587Q330.699 470.668 330.761 470.752Q330.824 470.836 330.882 470.922Q330.94 471.009 330.994 471.099Q331.048 471.188 331.097 471.28Q331.146 471.372 331.191 471.466Q331.236 471.561 331.276 471.657Q331.317 471.753 331.352 471.851Q331.388 471.95 331.418 472.049Q331.449 472.149 331.475 472.251Q331.5 472.352 331.521 472.454Q331.542 472.556 331.558 472.66Q331.573 472.763 331.584 472.867Q331.595 472.971 331.6 473.075Q331.606 473.179 331.607 473.283Q331.607 473.388 331.603 473.492Q331.598 473.597 331.589 473.701Q331.579 473.804 331.564 473.908Q331.549 474.011 331.53 474.114Q331.51 474.216 331.485 474.318Q331.461 474.419 331.431 474.519Q331.401 474.619 331.367 474.718Q331.333 474.817 331.293 474.913Q331.254 475.01 331.21 475.105Q331.166 475.2 331.118 475.292Q331.069 475.385 331.016 475.475Q330.964 475.565 330.906 475.652Q330.849 475.739 330.788 475.824Q330.726 475.908 330.661 475.99Q330.595 476.071 330.526 476.149Q330.457 476.227 330.383 476.302Q330.31 476.376 330.234 476.447Q330.157 476.518 330.077 476.585Q329.997 476.652 329.914 476.715Q329.831 476.778 329.745 476.837Q329.658 476.896 329.569 476.951Q329.48 477.006 329.389 477.056Q329.296 477.107 329.201 477.153Q329.106 477.199 329.009 477.241Q328.912 477.283 328.813 477.319Q328.714 477.356 328.613 477.388Q328.512 477.42 328.41 477.446Q328.307 477.473 328.204 477.495Q328.101 477.516 327.996 477.533Q327.892 477.549 327.787 477.561Q327.682 477.572 327.576 477.578Q327.471 477.585 327.365 477.585Q327.259 477.586 327.154 477.582Q327.048 477.578 326.943 477.568Q326.837 477.559 326.733 477.544Q326.628 477.53 326.524 477.51Q326.42 477.49 326.318 477.465Q326.215 477.44 326.114 477.41Q326.012 477.38 325.912 477.345Q325.813 477.31 325.715 477.27Q325.617 477.231 325.521 477.186Q325.425 477.141 325.332 477.092Q325.238 477.043 325.147 476.989Q325.056 476.935 324.968 476.877Q324.88 476.819 324.795 476.756Q324.709 476.694 324.627 476.627Q324.545 476.56 324.467 476.49Q324.388 476.419 324.313 476.344Q324.238 476.27 324.167 476.192Q324.095 476.114 324.028 476.032Q323.961 475.951 323.897 475.866Q323.834 475.782 323.775 475.694Q323.716 475.606 323.662 475.516Q323.607 475.425 323.557 475.332Q323.507 475.239 323.462 475.143Q323.416 475.048 323.376 474.95Q323.335 474.853 323.299 474.753Q323.263 474.654 323.233 474.553Q323.202 474.452 323.176 474.349Q323.15 474.247 323.13 474.143Q323.109 474.039 323.093 473.935Q323.078 473.83 323.068 473.725Q323.057 473.62 323.052 473.514Q323.047 473.409 323.047 473.303Q323.047 473.197 323.052 473.092Q323.058 472.986 323.068 472.881Q323.079 472.776 323.094 472.671Q323.11 472.567 323.131 472.463Q323.151 472.36 323.177 472.257Q323.203 472.155 323.234 472.054Q323.265 471.953 323.301 471.853Q323.337 471.754 323.378 471.656Q323.418 471.559 323.464 471.463Q323.509 471.368 323.559 471.275Q323.61 471.182 323.664 471.091Q323.719 471.001 323.778 470.913Q323.837 470.826 323.901 470.741Q323.964 470.656 324.031 470.575Q324.099 470.494 324.17 470.416Q324.241 470.338 324.317 470.263Q324.392 470.189 324.47 470.118Q324.549 470.048 324.631 469.981Q324.713 469.915 324.799 469.852Q324.884 469.79 324.972 469.732Q325.06 469.674 325.151 469.62Q325.242 469.566 325.336 469.517Z"/>
	<path fill="#A5ABB4" d="M736.193 536.396Q736.465 536.335 736.742 536.31Q737.02 536.286 737.298 536.298Q737.576 536.311 737.851 536.36Q738.125 536.409 738.39 536.495Q738.655 536.58 738.907 536.7Q739.158 536.819 739.392 536.971Q739.625 537.123 739.836 537.305Q740.048 537.487 740.233 537.695Q740.418 537.903 740.574 538.134Q740.73 538.365 740.854 538.614Q740.978 538.864 741.068 539.127Q741.158 539.391 741.212 539.664Q741.266 539.938 741.283 540.216Q741.3 540.494 741.28 540.772Q741.26 541.05 741.204 541.322Q741.147 541.595 741.055 541.858Q740.963 542.121 740.836 542.369Q740.71 542.618 740.552 542.847Q740.394 543.076 740.206 543.283Q740.019 543.489 739.806 543.669Q739.593 543.849 739.358 543.998Q739.123 544.148 738.871 544.266Q738.618 544.383 738.352 544.466Q738.086 544.548 737.811 544.595Q737.612 544.629 737.411 544.643Q737.209 544.658 737.007 544.653Q736.806 544.648 736.605 544.623Q736.405 544.599 736.208 544.555Q736.011 544.512 735.819 544.449Q735.627 544.387 735.441 544.306Q735.256 544.226 735.08 544.128Q734.904 544.029 734.737 543.915Q734.571 543.8 734.417 543.67Q734.262 543.54 734.121 543.396Q733.98 543.251 733.854 543.094Q733.727 542.937 733.616 542.768Q733.506 542.599 733.412 542.42Q733.318 542.242 733.241 542.055Q733.165 541.868 733.107 541.674Q733.049 541.481 733.01 541.283Q732.971 541.085 732.951 540.884Q732.931 540.683 732.931 540.481Q732.931 540.279 732.95 540.078Q732.969 539.878 733.007 539.679Q733.046 539.481 733.103 539.288Q733.16 539.094 733.236 538.907Q733.311 538.72 733.405 538.541Q733.498 538.362 733.608 538.193Q733.719 538.024 733.844 537.866Q733.97 537.708 734.111 537.563Q734.252 537.418 734.405 537.288Q734.559 537.157 734.725 537.042Q734.891 536.927 735.067 536.828Q735.243 536.729 735.428 536.648Q735.613 536.567 735.804 536.503Q735.996 536.44 736.193 536.396Z"/>
	<path fill="#FEFEFE" d="M722.576 703.383Q722.757 703.344 722.94 703.323Q723.124 703.302 723.308 703.299Q723.493 703.295 723.677 703.31Q723.862 703.325 724.043 703.358Q724.225 703.391 724.403 703.441Q724.581 703.492 724.753 703.559Q724.925 703.627 725.089 703.711Q725.254 703.795 725.409 703.895Q725.565 703.994 725.71 704.109Q725.855 704.223 725.988 704.351Q726.122 704.479 726.242 704.62Q726.362 704.76 726.468 704.911Q726.573 705.063 726.664 705.224Q726.754 705.385 726.829 705.554Q726.903 705.723 726.961 705.899Q727.018 706.075 727.058 706.255Q727.098 706.435 727.12 706.619Q727.143 706.802 727.147 706.987Q727.151 707.172 727.137 707.356Q727.123 707.54 727.092 707.722Q727.06 707.904 727.01 708.083Q726.961 708.261 726.894 708.433Q726.828 708.605 726.745 708.77Q726.662 708.935 726.563 709.092Q726.464 709.248 726.351 709.394Q726.237 709.539 726.11 709.673Q725.983 709.807 725.843 709.928Q725.703 710.049 725.552 710.156Q725.401 710.263 725.241 710.354Q725.08 710.445 724.911 710.521Q724.743 710.596 724.567 710.654Q724.392 710.713 724.212 710.754Q724.03 710.795 723.846 710.819Q723.661 710.842 723.475 710.847Q723.289 710.852 723.103 710.839Q722.917 710.826 722.734 710.794Q722.55 710.763 722.371 710.713Q722.191 710.664 722.018 710.597Q721.844 710.53 721.678 710.447Q721.511 710.363 721.354 710.264Q721.197 710.164 721.05 710.049Q720.903 709.935 720.768 709.807Q720.634 709.678 720.512 709.537Q720.391 709.396 720.284 709.244Q720.177 709.091 720.085 708.929Q719.993 708.767 719.918 708.597Q719.843 708.427 719.785 708.25Q719.727 708.073 719.687 707.891Q719.647 707.709 719.624 707.525Q719.602 707.34 719.598 707.154Q719.594 706.967 719.609 706.782Q719.623 706.596 719.656 706.413Q719.688 706.23 719.738 706.05Q719.789 705.871 719.857 705.698Q719.924 705.525 720.009 705.359Q720.094 705.193 720.194 705.036Q720.294 704.879 720.41 704.733Q720.525 704.587 720.654 704.453Q720.784 704.319 720.925 704.199Q721.067 704.078 721.22 703.972Q721.373 703.866 721.536 703.775Q721.698 703.684 721.869 703.61Q722.04 703.536 722.217 703.479Q722.394 703.422 722.576 703.383Z"/>
	<path fill="#FEFEFE" d="M697.852 703.396Q698.033 703.364 698.216 703.35Q698.399 703.337 698.582 703.34Q698.766 703.344 698.948 703.366Q699.13 703.388 699.31 703.427Q699.489 703.467 699.664 703.524Q699.838 703.58 700.006 703.654Q700.175 703.727 700.335 703.817Q700.495 703.906 700.646 704.011Q700.797 704.116 700.937 704.235Q701.076 704.354 701.204 704.486Q701.332 704.617 701.446 704.761Q701.56 704.905 701.659 705.059Q701.759 705.213 701.843 705.377Q701.927 705.54 701.995 705.71Q702.063 705.881 702.114 706.057Q702.165 706.234 702.198 706.414Q702.231 706.594 702.247 706.777Q702.263 706.96 702.261 707.144Q702.258 707.327 702.238 707.51Q702.218 707.692 702.181 707.872Q702.143 708.052 702.088 708.227Q702.033 708.402 701.961 708.571Q701.889 708.74 701.801 708.901Q701.713 709.062 701.61 709.214Q701.507 709.365 701.389 709.506Q701.272 709.647 701.141 709.776Q701.01 709.905 700.867 710.021Q700.725 710.136 700.572 710.237Q700.418 710.338 700.256 710.424Q700.094 710.51 699.924 710.579Q699.754 710.649 699.578 710.701Q699.402 710.754 699.222 710.789Q699.04 710.825 698.855 710.842Q698.67 710.86 698.484 710.859Q698.298 710.858 698.113 710.839Q697.928 710.819 697.746 710.782Q697.564 710.745 697.387 710.69Q697.21 710.635 697.038 710.562Q696.867 710.49 696.704 710.401Q696.541 710.312 696.387 710.208Q696.234 710.103 696.091 709.984Q695.948 709.865 695.818 709.733Q695.688 709.6 695.572 709.455Q695.455 709.31 695.354 709.155Q695.252 708.999 695.166 708.834Q695.081 708.67 695.011 708.497Q694.942 708.325 694.891 708.146Q694.839 707.968 694.805 707.785Q694.771 707.602 694.755 707.417Q694.74 707.232 694.742 707.046Q694.745 706.86 694.766 706.675Q694.787 706.491 694.826 706.309Q694.865 706.127 694.922 705.95Q694.978 705.774 695.052 705.603Q695.126 705.432 695.217 705.27Q695.307 705.108 695.413 704.955Q695.519 704.802 695.64 704.661Q695.76 704.52 695.894 704.391Q696.028 704.262 696.174 704.147Q696.32 704.031 696.477 703.931Q696.633 703.831 696.799 703.747Q696.965 703.663 697.138 703.596Q697.311 703.528 697.49 703.478Q697.669 703.428 697.852 703.396Z"/>
	<path fill="#FEFEFE" d="M710.249 703.388Q710.426 703.362 710.604 703.353Q710.783 703.344 710.962 703.352Q711.14 703.359 711.317 703.384Q711.494 703.409 711.668 703.45Q711.842 703.492 712.011 703.55Q712.181 703.608 712.344 703.681Q712.506 703.755 712.662 703.844Q712.817 703.932 712.963 704.035Q713.109 704.138 713.245 704.255Q713.38 704.371 713.504 704.5Q713.628 704.629 713.74 704.769Q713.851 704.909 713.948 705.059Q714.046 705.209 714.128 705.367Q714.211 705.526 714.278 705.691Q714.346 705.857 714.397 706.028Q714.448 706.2 714.483 706.375Q714.518 706.55 714.536 706.728Q714.554 706.906 714.555 707.085Q714.556 707.263 714.54 707.441Q714.524 707.62 714.491 707.795Q714.458 707.971 714.409 708.143Q714.36 708.315 714.295 708.481Q714.229 708.647 714.148 708.807Q714.068 708.966 713.972 709.117Q713.876 709.268 713.767 709.41Q713.657 709.551 713.535 709.681Q713.413 709.811 713.278 709.929Q713.144 710.047 712.999 710.152Q712.854 710.257 712.7 710.347Q712.546 710.438 712.384 710.513Q712.222 710.589 712.054 710.649Q711.885 710.708 711.712 710.752Q711.466 710.814 711.213 710.842Q710.96 710.87 710.706 710.864Q710.452 710.858 710.201 710.818Q709.95 710.778 709.707 710.704Q709.464 710.63 709.233 710.524Q709.001 710.419 708.787 710.283Q708.572 710.147 708.377 709.983Q708.183 709.819 708.012 709.631Q707.841 709.443 707.698 709.233Q707.554 709.024 707.439 708.797Q707.325 708.57 707.242 708.329Q707.16 708.089 707.11 707.839Q707.061 707.59 707.045 707.336Q707.029 707.083 707.048 706.829Q707.067 706.576 707.12 706.327Q707.172 706.078 707.258 705.839Q707.344 705.6 707.461 705.374Q707.578 705.148 707.725 704.941Q707.871 704.733 708.044 704.547Q708.218 704.361 708.414 704.199Q708.611 704.038 708.827 703.905Q709.044 703.772 709.276 703.669Q709.509 703.566 709.753 703.496Q709.997 703.425 710.249 703.388Z"/>
</svg>
